<svg width="659" height="667" viewBox="0 0 659 667" fill="none" xmlns="http://www.w3.org/2000/svg">
<mask id="mask0_7_817" style="mask-type:luminance" maskUnits="userSpaceOnUse" x="0" y="0" width="659" height="640">
<path d="M499.697 639.205C460.342 639.205 415.761 629.745 368.379 608.119C306.076 579.685 244.37 570.205 189.797 570.205C80.6436 570.205 0 608.119 0 608.119V0.000152032H470.972C470.972 0.000152032 459.679 18.5748 450.304 49.0654C433.97 102.144 423.482 191.337 488.687 281.292C507.005 306.569 531.318 331.929 563.154 356.544C731.387 486.667 657.705 639.205 499.697 639.205ZM48.019 384.968C47.618 384.968 47.2136 385.065 46.8102 385.273C27.1703 395.4 64.3146 412.892 51.5073 437.289C38.698 461.688 56.4617 460.796 63.8354 483.497C68.9121 499.128 42.9669 512.784 59.1921 524.291C75.4153 535.797 91.1477 572.995 91.1477 572.995C94.0047 575.409 96.0103 576.497 97.4142 576.497C100.653 576.497 100.683 570.697 100.541 561.999C107.123 561.514 109.69 555.243 113.039 547.06C113.771 545.272 114.526 543.426 115.384 541.475C115.557 541.081 115.729 540.7 115.9 540.332H311.581V480.985H313.867H313.976V466.804H313.867V398.815H313.976V384.635H313.867H311.581V371.039H325.077V399.399H338.229V371.036H325.077V356.235H311.581V342.675H351.862V438.445H365.014V328.495H357.253H351.862H311.581V314.311H325.559V300.131H299.256V305.713H276.832V300.131H263.682V305.713H250.517V300.131H224.213V305.713H88.3898V438.744C83.5581 435.577 79.7842 430.189 80.5398 418.416C81.1388 409.083 78.7374 407.621 75.0211 407.621C74.1743 407.621 73.2589 407.697 72.2956 407.773C71.3319 407.849 70.3203 407.925 69.2802 407.925C65.6977 407.925 61.778 407.024 58.338 402.124C58.338 402.124 53.3633 384.968 48.019 384.968ZM100.518 560.617C100.443 556.123 100.365 550.941 100.663 545.436C101.185 543.684 101.772 541.963 102.429 540.332H114.471C114.389 540.514 114.307 540.697 114.225 540.884C113.362 542.852 112.602 544.707 111.867 546.503C108.518 554.685 106.279 560.157 100.518 560.617Z" fill="white"/>
</mask>
<g mask="url(#mask0_7_817)">
<path d="M499.697 639.205C460.342 639.205 415.761 629.745 368.379 608.119C306.076 579.685 244.37 570.205 189.797 570.205C80.6436 570.205 0 608.119 0 608.119V0.000152032H470.972C470.972 0.000152032 459.679 18.5748 450.304 49.0654C433.97 102.144 423.482 191.337 488.687 281.292C507.005 306.569 531.318 331.929 563.154 356.544C731.387 486.667 657.705 639.205 499.697 639.205ZM48.019 384.968C47.618 384.968 47.2136 385.065 46.8102 385.273C27.1703 395.4 64.3146 412.892 51.5073 437.289C38.698 461.688 56.4617 460.796 63.8354 483.497C68.9121 499.128 42.9669 512.784 59.1921 524.291C75.4153 535.797 91.1477 572.995 91.1477 572.995C94.0047 575.409 96.0103 576.497 97.4142 576.497C100.653 576.497 100.683 570.697 100.541 561.999C107.123 561.514 109.69 555.243 113.039 547.06C113.771 545.272 114.526 543.426 115.384 541.475C115.557 541.081 115.729 540.7 115.9 540.332H311.581V480.985H313.867H313.976V466.804H313.867V398.815H313.976V384.635H313.867H311.581V371.039H325.077V399.399H338.229V371.036H325.077V356.235H311.581V342.675H351.862V438.445H365.014V328.495H357.253H351.862H311.581V314.311H325.559V300.131H299.256V305.713H276.832V300.131H263.682V305.713H250.517V300.131H224.213V305.713H88.3898V438.744C83.5581 435.577 79.7842 430.189 80.5398 418.416C81.1388 409.083 78.7374 407.621 75.0211 407.621C74.1743 407.621 73.2589 407.697 72.2956 407.773C71.3319 407.849 70.3203 407.925 69.2802 407.925C65.6977 407.925 61.778 407.024 58.338 402.124C58.338 402.124 53.3633 384.968 48.019 384.968ZM100.518 560.617C100.443 556.123 100.365 550.941 100.663 545.436C101.185 543.684 101.772 541.963 102.429 540.332H114.471C114.389 540.514 114.307 540.697 114.225 540.884C113.362 542.852 112.602 544.707 111.867 546.503C108.518 554.685 106.279 560.157 100.518 560.617Z" fill="url(#paint0_linear_7_817)"/>
</g>
<mask id="mask1_7_817" style="mask-type:luminance" maskUnits="userSpaceOnUse" x="0" y="11" width="102" height="253">
<path d="M101.163 137.612C101.163 201.724 57.1998 254.775 0.00146484 263.614V11.5991C57.1998 20.4524 101.163 73.5031 101.163 137.612Z" fill="white"/>
</mask>
<g mask="url(#mask1_7_817)">
<path d="M101.163 137.612C101.163 201.724 57.1998 254.775 0.00146484 263.614V11.5991C57.1998 20.4524 101.163 73.5031 101.163 137.612Z" fill="url(#paint1_linear_7_817)"/>
</g>
<mask id="mask2_7_817" style="mask-type:luminance" maskUnits="userSpaceOnUse" x="278" y="40" width="211" height="275">
<path d="M488.688 281.294C466.471 301.868 437.565 314.32 405.985 314.32C335.842 314.32 278.988 253.008 278.988 177.398C278.988 101.787 335.842 40.4751 405.985 40.4751C421.577 40.4751 436.504 43.5084 450.305 49.0671C433.971 102.146 423.483 191.339 488.688 281.294Z" fill="white"/>
</mask>
<g mask="url(#mask2_7_817)">
<path d="M488.688 281.294C466.471 301.868 437.565 314.32 405.985 314.32C335.842 314.32 278.988 253.008 278.988 177.398C278.988 101.787 335.842 40.4751 405.985 40.4751C421.577 40.4751 436.504 43.5084 450.305 49.0671C433.971 102.146 423.483 191.339 488.688 281.294Z" fill="url(#paint2_linear_7_817)"/>
</g>
<mask id="mask3_7_817" style="mask-type:luminance" maskUnits="userSpaceOnUse" x="40" y="384" width="62" height="193">
<path d="M97.4152 576.499C96.0113 576.499 94.0057 575.411 91.1487 572.996C91.1487 572.996 75.4163 535.799 59.1931 524.292C42.9679 512.786 68.913 499.13 63.8363 483.499C56.4626 460.798 38.699 461.69 51.5082 437.291C64.3156 412.894 27.1712 395.402 46.8112 385.275C47.2146 385.067 47.619 384.97 48.0199 384.97C53.3643 384.97 58.3389 402.126 58.3389 402.126C61.779 407.026 65.6987 407.927 69.2812 407.927C70.3213 407.927 71.3329 407.851 72.2966 407.775C73.2599 407.699 74.1752 407.623 75.0221 407.623C78.7383 407.623 81.1397 409.084 80.5408 418.418C79.7852 430.191 83.5591 435.579 88.3908 438.746V458.026C85.2932 461.796 84.4161 467.458 88.3908 476.898V498.438C86.1802 499.495 83.6074 500.184 81.6939 501.634C81.1698 496.816 80.835 492.135 80.7383 487.796C80.4519 474.887 76.754 469.268 73.7815 464.751C70.9497 460.45 68.7131 457.051 70.0706 448.92C72.983 431.475 65.3827 424.075 65.0581 423.767L64.2137 424.804C64.2871 424.875 71.5845 432.052 68.8101 448.676C67.3575 457.376 69.8507 461.164 72.7371 465.552C75.7578 470.14 79.1813 475.343 79.4572 487.827C79.5573 492.323 79.9471 497.382 80.5649 502.68C78.5824 504.964 77.9722 508.816 80.7301 516.444C89.4946 540.684 83.2953 566.428 89.4497 566.43C90.1912 566.43 91.1105 566.058 92.2579 565.263C93.5723 564.354 94.6539 563.036 95.5612 561.419C95.7272 561.471 95.8969 561.519 96.0703 561.563C95.4834 566.199 95.309 569.521 95.2891 569.93L96.5683 570.003C96.5726 569.915 96.7051 567.394 97.1379 563.626C97.1654 563.752 97.1896 563.864 97.2104 563.96L98.4581 563.643C98.3412 563.109 98.219 562.538 98.0924 561.931C98.6537 561.997 99.1904 562.03 99.7045 562.03C99.9909 562.03 100.27 562.02 100.542 562.001C100.684 570.699 100.654 576.499 97.4152 576.499ZM99.7112 560.65C99.1118 560.65 98.4745 560.6 97.7983 560.499C97.747 560.246 97.6953 559.985 97.6432 559.723C98.2634 555.418 99.218 550.295 100.664 545.438C100.366 550.943 100.444 556.124 100.519 560.619C100.257 560.64 99.9885 560.65 99.7112 560.65ZM96.2515 560.188C96.234 560.183 96.2166 560.179 96.1993 560.174C96.2249 560.119 96.251 560.064 96.2761 560.008C96.2679 560.068 96.2596 560.128 96.2515 560.188ZM100.616 541.39C100.67 541.035 100.725 540.685 100.78 540.334H101.016C100.879 540.682 100.746 541.035 100.616 541.39Z" fill="white"/>
</mask>
<g mask="url(#mask3_7_817)">
<path d="M97.4152 576.499C96.0113 576.499 94.0057 575.411 91.1487 572.996C91.1487 572.996 75.4163 535.799 59.1931 524.292C42.9679 512.786 68.913 499.13 63.8363 483.499C56.4626 460.798 38.699 461.69 51.5082 437.291C64.3156 412.894 27.1712 395.402 46.8112 385.275C47.2146 385.067 47.619 384.97 48.0199 384.97C53.3643 384.97 58.3389 402.126 58.3389 402.126C61.779 407.026 65.6987 407.927 69.2812 407.927C70.3213 407.927 71.3329 407.851 72.2966 407.775C73.2599 407.699 74.1752 407.623 75.0221 407.623C78.7383 407.623 81.1397 409.084 80.5408 418.418C79.7852 430.191 83.5591 435.579 88.3908 438.746V458.026C85.2932 461.796 84.4161 467.458 88.3908 476.898V498.438C86.1802 499.495 83.6074 500.184 81.6939 501.634C81.1698 496.816 80.835 492.135 80.7383 487.796C80.4519 474.887 76.754 469.268 73.7815 464.751C70.9497 460.45 68.7131 457.051 70.0706 448.92C72.983 431.475 65.3827 424.075 65.0581 423.767L64.2137 424.804C64.2871 424.875 71.5845 432.052 68.8101 448.676C67.3575 457.376 69.8507 461.164 72.7371 465.552C75.7578 470.14 79.1813 475.343 79.4572 487.827C79.5573 492.323 79.9471 497.382 80.5649 502.68C78.5824 504.964 77.9722 508.816 80.7301 516.444C89.4946 540.684 83.2953 566.428 89.4497 566.43C90.1912 566.43 91.1105 566.058 92.2579 565.263C93.5723 564.354 94.6539 563.036 95.5612 561.419C95.7272 561.471 95.8969 561.519 96.0703 561.563C95.4834 566.199 95.309 569.521 95.2891 569.93L96.5683 570.003C96.5726 569.915 96.7051 567.394 97.1379 563.626C97.1654 563.752 97.1896 563.864 97.2104 563.96L98.4581 563.643C98.3412 563.109 98.219 562.538 98.0924 561.931C98.6537 561.997 99.1904 562.03 99.7045 562.03C99.9909 562.03 100.27 562.02 100.542 562.001C100.684 570.699 100.654 576.499 97.4152 576.499ZM99.7112 560.65C99.1118 560.65 98.4745 560.6 97.7983 560.499C97.747 560.246 97.6953 559.985 97.6432 559.723C98.2634 555.418 99.218 550.295 100.664 545.438C100.366 550.943 100.444 556.124 100.519 560.619C100.257 560.64 99.9885 560.65 99.7112 560.65ZM96.2515 560.188C96.234 560.183 96.2166 560.179 96.1993 560.174C96.2249 560.119 96.251 560.064 96.2761 560.008C96.2679 560.068 96.2596 560.128 96.2515 560.188ZM100.616 541.39C100.67 541.035 100.725 540.685 100.78 540.334H101.016C100.879 540.682 100.746 541.035 100.616 541.39Z" fill="url(#paint3_linear_7_817)"/>
</g>
<path d="M96.8065 558.998C89.0627 553.126 79.9982 512.203 79.4572 487.827C79.1813 475.343 75.7578 470.141 72.7371 465.553C69.8507 461.165 67.3575 457.376 68.8101 448.676C71.5845 432.052 64.2871 424.875 64.2136 424.805L65.058 423.767C65.3827 424.075 72.9829 431.475 70.0705 448.921C68.713 457.051 70.9497 460.45 73.7815 464.751C76.7539 469.269 80.4519 474.887 80.7383 487.796C81.3185 513.955 90.5849 552.591 97.5437 557.868L96.8065 558.998Z" fill="white"/>
<mask id="mask4_7_817" style="mask-type:luminance" maskUnits="userSpaceOnUse" x="95" y="540" width="21" height="23">
<path d="M99.7045 562.03C99.1904 562.03 98.6537 561.998 98.0924 561.931C97.9968 561.473 97.8982 560.995 97.7983 560.499C98.4745 560.6 99.1118 560.65 99.7112 560.65C99.9885 560.65 100.257 560.64 100.519 560.619C106.28 560.159 108.519 554.687 111.868 546.504C112.603 544.708 113.363 542.854 114.226 540.886C114.308 540.699 114.39 540.515 114.472 540.334H115.901C115.73 540.702 115.558 541.083 115.385 541.476C114.527 543.427 113.772 545.274 113.04 547.062C109.691 555.244 107.124 561.515 100.542 562.001C100.27 562.02 99.9909 562.03 99.7045 562.03ZM96.0703 561.563C95.8969 561.519 95.7272 561.471 95.5612 561.419C95.7843 561.022 95.9963 560.607 96.1993 560.174C96.2166 560.179 96.234 560.183 96.2515 560.188C96.1872 560.658 96.1268 561.116 96.0703 561.563Z" fill="white"/>
</mask>
<g mask="url(#mask4_7_817)">
<path d="M99.7045 562.03C99.1904 562.03 98.6537 561.998 98.0924 561.931C97.9968 561.473 97.8982 560.995 97.7983 560.499C98.4745 560.6 99.1118 560.65 99.7112 560.65C99.9885 560.65 100.257 560.64 100.519 560.619C106.28 560.159 108.519 554.687 111.868 546.504C112.603 544.708 113.363 542.854 114.226 540.886C114.308 540.699 114.39 540.515 114.472 540.334H115.901C115.73 540.702 115.558 541.083 115.385 541.476C114.527 543.427 113.772 545.274 113.04 547.062C109.691 555.244 107.124 561.515 100.542 562.001C100.27 562.02 99.9909 562.03 99.7045 562.03ZM96.0703 561.563C95.8969 561.519 95.7272 561.471 95.5612 561.419C95.7843 561.022 95.9963 560.607 96.1993 560.174C96.2166 560.179 96.234 560.183 96.2515 560.188C96.1872 560.658 96.1268 561.116 96.0703 561.563Z" fill="url(#paint4_linear_7_817)"/>
</g>
<mask id="mask5_7_817" style="mask-type:luminance" maskUnits="userSpaceOnUse" x="95" y="540" width="8" height="31">
<path d="M96.5683 570.003L95.2891 569.93C95.309 569.521 95.4833 566.199 96.0703 561.563C96.1268 561.116 96.1871 560.658 96.2514 560.188C96.2596 560.128 96.2679 560.068 96.2761 560.008C96.3022 559.952 96.3278 559.895 96.3534 559.839C96.6949 561.55 96.9727 562.861 97.1379 563.626C96.7051 567.394 96.5726 569.915 96.5683 570.003ZM97.6432 559.723C97.5084 559.046 97.3716 558.342 97.2325 557.609C98.8417 552.98 99.7248 547.123 100.616 541.39C100.746 541.035 100.879 540.682 101.016 540.334H102.43C101.772 541.964 101.186 543.685 100.664 545.438C99.218 550.295 98.2634 555.418 97.6432 559.723Z" fill="white"/>
</mask>
<g mask="url(#mask5_7_817)">
<path d="M96.5683 570.003L95.2891 569.93C95.309 569.521 95.4833 566.199 96.0703 561.563C96.1268 561.116 96.1871 560.658 96.2514 560.188C96.2596 560.128 96.2679 560.068 96.2761 560.008C96.3022 559.952 96.3278 559.895 96.3534 559.839C96.6949 561.55 96.9727 562.861 97.1379 563.626C96.7051 567.394 96.5726 569.915 96.5683 570.003ZM97.6432 559.723C97.5084 559.046 97.3716 558.342 97.2325 557.609C98.8417 552.98 99.7248 547.123 100.616 541.39C100.746 541.035 100.879 540.682 101.016 540.334H102.43C101.772 541.964 101.186 543.685 100.664 545.438C99.218 550.295 98.2634 555.418 97.6432 559.723Z" fill="url(#paint5_linear_7_817)"/>
</g>
<mask id="mask6_7_817" style="mask-type:luminance" maskUnits="userSpaceOnUse" x="78" y="458" width="23" height="109">
<path d="M89.4497 566.43C83.2953 566.428 89.4946 540.684 80.7301 516.444C77.9722 508.816 78.5824 504.964 80.5649 502.68C80.904 502.288 81.2842 501.944 81.6939 501.634C83.6074 500.184 86.1802 499.495 88.3908 498.438V540.334H93.1704C94.0873 547.909 95.4466 555.294 96.3534 559.839C96.3278 559.895 96.3022 559.952 96.2761 560.008C96.251 560.064 96.2249 560.119 96.1993 560.174C95.9963 560.607 95.7842 561.021 95.5612 561.419C94.6539 563.036 93.5723 564.354 92.2579 565.263C91.1105 566.058 90.1912 566.43 89.4497 566.43ZM97.2325 557.609C96.2837 552.62 95.2533 546.443 94.5128 540.334H100.78C100.725 540.685 100.67 541.035 100.616 541.39C99.7248 547.123 98.8417 552.98 97.2325 557.609ZM88.3908 476.898C84.4161 467.458 85.2932 461.796 88.3908 458.026V476.898Z" fill="white"/>
</mask>
<g mask="url(#mask6_7_817)">
<path d="M89.4497 566.43C83.2953 566.428 89.4946 540.684 80.7301 516.444C77.9722 508.816 78.5824 504.964 80.5649 502.68C80.904 502.288 81.2842 501.944 81.6939 501.634C83.6074 500.184 86.1802 499.495 88.3908 498.438V540.334H93.1704C94.0873 547.909 95.4466 555.294 96.3534 559.839C96.3278 559.895 96.3022 559.952 96.2761 560.008C96.251 560.064 96.2249 560.119 96.1993 560.174C95.9963 560.607 95.7842 561.021 95.5612 561.419C94.6539 563.036 93.5723 564.354 92.2579 565.263C91.1105 566.058 90.1912 566.43 89.4497 566.43ZM97.2325 557.609C96.2837 552.62 95.2533 546.443 94.5128 540.334H100.78C100.725 540.685 100.67 541.035 100.616 541.39C99.7248 547.123 98.8417 552.98 97.2325 557.609ZM88.3908 476.898C84.4161 467.458 85.2932 461.796 88.3908 458.026V476.898Z" fill="url(#paint6_linear_7_817)"/>
</g>
<path d="M97.2104 563.96C96.195 559.309 87.5126 518.395 95.6129 513.448C102.752 509.088 102.578 492.135 101.463 476.126C100.478 461.952 117.359 455.328 118.079 455.054L118.507 456.354C118.34 456.418 101.828 462.903 102.74 476.022C103.884 492.464 104.007 509.911 96.2452 514.651C90.0932 518.406 95.7563 551.29 98.4581 563.643L97.2104 563.96Z" fill="white"/>
<mask id="mask7_7_817" style="mask-type:luminance" maskUnits="userSpaceOnUse" x="66" y="549" width="50" height="48">
<path d="M115.586 549.391L104.045 596.599H78.2534L66.7116 549.391H115.586Z" fill="white"/>
</mask>
<g mask="url(#mask7_7_817)">
<path d="M115.586 549.391L104.045 596.599H78.2534L66.7116 549.391H115.586Z" fill="url(#paint7_linear_7_817)"/>
</g>
<mask id="mask8_7_817" style="mask-type:luminance" maskUnits="userSpaceOnUse" x="66" y="549" width="50" height="48">
<path d="M115.586 549.391C115.586 549.391 90.1781 554.535 90.1781 596.599H78.2534L66.7116 549.391H115.586Z" fill="white"/>
</mask>
<g mask="url(#mask8_7_817)">
<path d="M115.586 549.391C115.586 549.391 90.1781 554.535 90.1781 596.599H78.2534L66.7116 549.391H115.586Z" fill="url(#paint8_linear_7_817)"/>
</g>
<mask id="mask9_7_817" style="mask-type:luminance" maskUnits="userSpaceOnUse" x="474" y="458" width="48" height="52">
<path d="M474.338 509.626V504.902H517.036V458.863H521.418V509.626H474.338Z" fill="white"/>
</mask>
<g mask="url(#mask9_7_817)">
<path d="M474.338 509.626V504.902H517.036V458.863H521.418V509.626H474.338Z" fill="url(#paint9_linear_7_817)"/>
</g>
<mask id="mask10_7_817" style="mask-type:luminance" maskUnits="userSpaceOnUse" x="263" y="300" width="103" height="139">
<path d="M365.015 438.447H351.863V342.676H311.582V328.496H351.863H357.254H365.015V438.447ZM276.833 305.715H263.683V300.132H276.833V305.715Z" fill="white"/>
</mask>
<g mask="url(#mask10_7_817)">
<path d="M365.015 438.447H351.863V342.676H311.582V328.496H351.863H357.254H365.015V438.447ZM276.833 305.715H263.683V300.132H276.833V305.715Z" fill="url(#paint10_linear_7_817)"/>
</g>
<mask id="mask11_7_817" style="mask-type:luminance" maskUnits="userSpaceOnUse" x="224" y="300" width="27" height="6">
<path d="M224.214 305.715H250.518V300.132H224.214V305.715Z" fill="white"/>
</mask>
<g mask="url(#mask11_7_817)">
<path d="M224.214 305.715H250.518V300.132H224.214V305.715Z" fill="url(#paint11_linear_7_817)"/>
</g>
<mask id="mask12_7_817" style="mask-type:luminance" maskUnits="userSpaceOnUse" x="325" y="314" width="27" height="15">
<path d="M351.863 314.315H325.56V328.494H351.863V314.315Z" fill="white"/>
</mask>
<g mask="url(#mask12_7_817)">
<path d="M351.863 314.315H325.56V328.494H351.863V314.315Z" fill="url(#paint12_linear_7_817)"/>
</g>
<mask id="mask13_7_817" style="mask-type:luminance" maskUnits="userSpaceOnUse" x="299" y="300" width="27" height="15">
<path d="M325.56 314.312H311.582V305.715H299.257V300.132H325.56V314.312Z" fill="white"/>
</mask>
<g mask="url(#mask13_7_817)">
<path d="M325.56 314.312H311.582V305.715H299.257V300.132H325.56V314.312Z" fill="url(#paint13_linear_7_817)"/>
</g>
<mask id="mask14_7_817" style="mask-type:luminance" maskUnits="userSpaceOnUse" x="325" y="221" width="14" height="26">
<path d="M325.56 221.646V246.982H338.711V221.646H325.56Z" fill="white"/>
</mask>
<g mask="url(#mask14_7_817)">
<path d="M325.56 221.646V246.982H338.711V221.646H325.56Z" fill="url(#paint14_linear_7_817)"/>
</g>
<mask id="mask15_7_817" style="mask-type:luminance" maskUnits="userSpaceOnUse" x="350" y="207" width="14" height="29">
<path d="M350.423 207.155V235.824H363.575V207.155H350.423Z" fill="white"/>
</mask>
<g mask="url(#mask15_7_817)">
<path d="M350.423 207.155V235.824H363.575V207.155H350.423Z" fill="url(#paint15_linear_7_817)"/>
</g>
<mask id="mask16_7_817" style="mask-type:luminance" maskUnits="userSpaceOnUse" x="365" y="314" width="14" height="15">
<path d="M365.015 328.494H378.167V314.315H365.015V328.494Z" fill="white"/>
</mask>
<g mask="url(#mask16_7_817)">
<path d="M365.015 328.494H378.167V314.315H365.015V328.494Z" fill="url(#paint16_linear_7_817)"/>
</g>
<mask id="mask17_7_817" style="mask-type:luminance" maskUnits="userSpaceOnUse" x="391" y="327" width="14" height="38">
<path d="M404.255 327.103H391.103V364.527H404.255V327.103Z" fill="white"/>
</mask>
<g mask="url(#mask17_7_817)">
<path d="M404.255 327.103H391.103V364.527H404.255V327.103Z" fill="url(#paint17_linear_7_817)"/>
</g>
<mask id="mask18_7_817" style="mask-type:luminance" maskUnits="userSpaceOnUse" x="351" y="300" width="15" height="15">
<path d="M351.863 314.312H365.015V300.132H351.863V314.312Z" fill="white"/>
</mask>
<g mask="url(#mask18_7_817)">
<path d="M351.863 314.312H365.015V300.132H351.863V314.312Z" fill="url(#paint18_linear_7_817)"/>
</g>
<mask id="mask19_7_817" style="mask-type:luminance" maskUnits="userSpaceOnUse" x="365" y="285" width="27" height="16">
<path d="M391.318 300.132V285.951H365.015V300.132H378.167H391.318Z" fill="white"/>
</mask>
<g mask="url(#mask19_7_817)">
<path d="M391.318 300.132V285.951H365.015V300.132H378.167H391.318Z" fill="url(#paint19_linear_7_817)"/>
</g>
<mask id="mask20_7_817" style="mask-type:luminance" maskUnits="userSpaceOnUse" x="377" y="355" width="53" height="48">
<path d="M416.545 371.041H391.103V364.527H377.952V402.417H391.103V385.22H403.535V399.401H416.687V385.449H429.696V355.462H416.545V371.041Z" fill="white"/>
</mask>
<g mask="url(#mask20_7_817)">
<path d="M416.545 371.041H391.103V364.527H377.952V402.417H391.103V385.22H403.535V399.401H416.687V385.449H429.696V355.462H416.545V371.041Z" fill="url(#paint20_linear_7_817)"/>
</g>
<mask id="mask21_7_817" style="mask-type:luminance" maskUnits="userSpaceOnUse" x="442" y="452" width="14" height="15">
<path d="M456 466.804V452.627H442.848V466.804H456Z" fill="white"/>
</mask>
<g mask="url(#mask21_7_817)">
<path d="M456 466.804V452.627H442.848V466.804H456Z" fill="url(#paint21_linear_7_817)"/>
</g>
<mask id="mask22_7_817" style="mask-type:luminance" maskUnits="userSpaceOnUse" x="325" y="426" width="27" height="58">
<path d="M338.23 426.304H325.078V483.023H338.23V452.627H351.863V438.447H338.23V426.304Z" fill="white"/>
</mask>
<g mask="url(#mask22_7_817)">
<path d="M338.23 426.304H325.078V483.023H338.23V452.627H351.863V438.447H338.23V426.304Z" fill="url(#paint22_linear_7_817)"/>
</g>
<mask id="mask23_7_817" style="mask-type:luminance" maskUnits="userSpaceOnUse" x="311" y="384" width="3" height="97">
<path d="M313.977 480.987H311.582V384.636H313.977V398.816H313.868V466.806H313.977V480.987Z" fill="white"/>
</mask>
<g mask="url(#mask23_7_817)">
<path d="M313.977 480.987H311.582V384.636H313.977V398.816H313.868V466.806H313.977V480.987Z" fill="url(#paint23_linear_7_817)"/>
</g>
<mask id="mask24_7_817" style="mask-type:luminance" maskUnits="userSpaceOnUse" x="456" y="466" width="27" height="15">
<path d="M482.304 480.987V466.804H456V480.987H482.304Z" fill="white"/>
</mask>
<g mask="url(#mask24_7_817)">
<path d="M482.304 480.987V466.804H456V480.987H482.304Z" fill="url(#paint24_linear_7_817)"/>
</g>
<mask id="mask25_7_817" style="mask-type:luminance" maskUnits="userSpaceOnUse" x="405" y="452" width="15" height="30">
<path d="M405.98 466.963V481.142H419.132V452.782H405.98V466.963Z" fill="white"/>
</mask>
<g mask="url(#mask25_7_817)">
<path d="M405.98 466.963V481.142H419.132V452.782H405.98V466.963Z" fill="url(#paint25_linear_7_817)"/>
</g>
<mask id="mask26_7_817" style="mask-type:luminance" maskUnits="userSpaceOnUse" x="351" y="466" width="43" height="15">
<path d="M351.863 480.987H393.69V466.804H351.863V480.987Z" fill="white"/>
</mask>
<g mask="url(#mask26_7_817)">
<path d="M351.863 480.987H393.69V466.804H351.863V480.987Z" fill="url(#paint26_linear_7_817)"/>
</g>
<mask id="mask27_7_817" style="mask-type:luminance" maskUnits="userSpaceOnUse" x="429" y="341" width="14" height="15">
<path d="M429.696 355.462H442.848V341.282H429.696V355.462Z" fill="white"/>
</mask>
<g mask="url(#mask27_7_817)">
<path d="M429.696 355.462H442.848V341.282H429.696V355.462Z" fill="url(#paint27_linear_7_817)"/>
</g>
<mask id="mask28_7_817" style="mask-type:luminance" maskUnits="userSpaceOnUse" x="442" y="327" width="14" height="15">
<path d="M456 341.282V327.103H442.848V341.282H456Z" fill="white"/>
</mask>
<g mask="url(#mask28_7_817)">
<path d="M456 341.282V327.103H442.848V341.282H456Z" fill="url(#paint28_linear_7_817)"/>
</g>
<mask id="mask29_7_817" style="mask-type:luminance" maskUnits="userSpaceOnUse" x="453" y="298" width="28" height="15">
<path d="M480.04 312.922V298.743H453.196V312.922H480.04Z" fill="white"/>
</mask>
<g mask="url(#mask29_7_817)">
<path d="M480.04 312.922V298.743H453.196V312.922H480.04Z" fill="url(#paint29_linear_7_817)"/>
</g>
<mask id="mask30_7_817" style="mask-type:luminance" maskUnits="userSpaceOnUse" x="466" y="328" width="27" height="30">
<path d="M492.653 357.087V328.73H479.501V342.91H466.349V357.087H479.501H492.653Z" fill="white"/>
</mask>
<g mask="url(#mask30_7_817)">
<path d="M492.653 357.087V328.73H479.501V342.91H466.349V357.087H479.501H492.653Z" fill="url(#paint30_linear_7_817)"/>
</g>
<mask id="mask31_7_817" style="mask-type:luminance" maskUnits="userSpaceOnUse" x="453" y="357" width="14" height="15">
<path d="M453.196 357.087V371.267H466.348V357.087H453.196Z" fill="white"/>
</mask>
<g mask="url(#mask31_7_817)">
<path d="M453.196 357.087V371.267H466.348V357.087H453.196Z" fill="url(#paint31_linear_7_817)"/>
</g>
<mask id="mask32_7_817" style="mask-type:luminance" maskUnits="userSpaceOnUse" x="466" y="371" width="14" height="15">
<path d="M479.501 371.267H466.349V385.448H479.501V371.267Z" fill="white"/>
</mask>
<g mask="url(#mask32_7_817)">
<path d="M479.501 371.267H466.349V385.448H479.501V371.267Z" fill="url(#paint32_linear_7_817)"/>
</g>
<mask id="mask33_7_817" style="mask-type:luminance" maskUnits="userSpaceOnUse" x="466" y="399" width="27" height="54">
<path d="M479.501 427.986V452.627H492.653V410.939H479.501V399.628H466.349V427.986H479.501Z" fill="white"/>
</mask>
<g mask="url(#mask33_7_817)">
<path d="M479.501 427.986V452.627H492.653V410.939H479.501V399.628H466.349V427.986H479.501Z" fill="url(#paint33_linear_7_817)"/>
</g>
<mask id="mask34_7_817" style="mask-type:luminance" maskUnits="userSpaceOnUse" x="393" y="385" width="74" height="68">
<path d="M429.696 424.268H393.69V438.447H429.696V452.627H442.848V438.447V399.628H466.349V385.448H429.696V399.628V424.268Z" fill="white"/>
</mask>
<g mask="url(#mask34_7_817)">
<path d="M429.696 424.268H393.69V438.447H429.696V452.627H442.848V438.447V399.628H466.349V385.448H429.696V399.628V424.268Z" fill="url(#paint34_linear_7_817)"/>
</g>
<mask id="mask35_7_817" style="mask-type:luminance" maskUnits="userSpaceOnUse" x="365" y="438" width="29" height="15">
<path d="M365.015 452.627H393.69V438.447H365.015V452.627Z" fill="white"/>
</mask>
<g mask="url(#mask35_7_817)">
<path d="M365.015 452.627H393.69V438.447H365.015V452.627Z" fill="url(#paint35_linear_7_817)"/>
</g>
<mask id="mask36_7_817" style="mask-type:luminance" maskUnits="userSpaceOnUse" x="311" y="356" width="28" height="44">
<path d="M338.23 399.4H325.078V371.04H311.582V356.236H325.078V371.038H338.23V399.4Z" fill="white"/>
</mask>
<g mask="url(#mask36_7_817)">
<path d="M338.23 399.4H325.078V371.04H311.582V356.236H325.078V371.038H338.23V399.4Z" fill="url(#paint36_linear_7_817)"/>
</g>
<mask id="mask37_7_817" style="mask-type:luminance" maskUnits="userSpaceOnUse" x="224" y="189" width="90" height="97">
<path d="M237.763 203.776H300.717V271.767H237.763V203.776ZM300.717 285.946H313.977V271.767H313.868V203.776H313.977V189.596H313.868H300.717H237.763H224.612V203.776V271.767V285.946H237.763H300.717Z" fill="white"/>
</mask>
<g mask="url(#mask37_7_817)">
<path d="M237.763 203.776H300.717V271.767H237.763V203.776ZM300.717 285.946H313.977V271.767H313.868V203.776H313.977V189.596H313.868H300.717H237.763H224.612V203.776V271.767V285.946H237.763H300.717Z" fill="url(#paint37_linear_7_817)"/>
</g>
<mask id="mask38_7_817" style="mask-type:luminance" maskUnits="userSpaceOnUse" x="249" y="216" width="40" height="43">
<path d="M249.62 258.983H288.968V216.56H249.62V258.983Z" fill="white"/>
</mask>
<g mask="url(#mask38_7_817)">
<path d="M249.62 258.983H288.968V216.56H249.62V258.983Z" fill="url(#paint38_linear_7_817)"/>
</g>
<mask id="mask39_7_817" style="mask-type:luminance" maskUnits="userSpaceOnUse" x="325" y="189" width="170" height="139">
<path d="M480.847 271.767H417.893V203.776H480.847V271.767ZM494.106 203.776V189.596H404.741V221.646H376.081V235.824H363.575V258.14H351.863V246.982H338.711V258.14H337.781H325.56V300.132H338.711V272.32H351.863H363.575H376.726V258.14V235.824H404.741V271.767V285.946H417.893H429.696V312.922H404.362V327.103H442.848V312.922V285.946H480.847H493.999H494.106V271.767H493.999V203.776H494.106Z" fill="white"/>
</mask>
<g mask="url(#mask39_7_817)">
<path d="M480.847 271.767H417.893V203.776H480.847V271.767ZM494.106 203.776V189.596H404.741V221.646H376.081V235.824H363.575V258.14H351.863V246.982H338.711V258.14H337.781H325.56V300.132H338.711V272.32H351.863H363.575H376.726V258.14V235.824H404.741V271.767V285.946H417.893H429.696V312.922H404.362V327.103H442.848V312.922V285.946H480.847H493.999H494.106V271.767H493.999V203.776H494.106Z" fill="url(#paint39_linear_7_817)"/>
</g>
<mask id="mask40_7_817" style="mask-type:luminance" maskUnits="userSpaceOnUse" x="429" y="216" width="41" height="43">
<path d="M469.096 216.56H429.749V258.983H469.096V216.56Z" fill="white"/>
</mask>
<g mask="url(#mask40_7_817)">
<path d="M469.096 216.56H429.749V258.983H469.096V216.56Z" fill="url(#paint40_linear_7_817)"/>
</g>
<path d="M392.132 124.998H390.526L395.422 114.33H397.026L392.132 124.998Z" fill="#FFC555"/>
<path d="M418.187 125.347H340.519V124.02H418.187V125.347Z" fill="#FFC555"/>
<path d="M382.008 136.003H340.519V128.323H382.008V136.003Z" fill="#FFC555"/>
<path d="M412.145 114.33H390.526V110.106H412.145V114.33Z" fill="#FFC555"/>
<path d="M412.145 108.93H390.526V108.135H412.145V108.93Z" fill="#FFC555"/>
<mask id="mask41_7_817" style="mask-type:luminance" maskUnits="userSpaceOnUse" x="88" y="305" width="224" height="236">
<path d="M311.582 540.334H115.901C120.119 531.276 123.981 529.643 130.219 527.004C131.808 526.332 133.605 525.572 135.58 524.614C144.88 520.108 143.079 513.467 141.49 507.607C141.267 506.788 141.047 505.97 140.854 505.16C140.036 501.716 141.607 499.987 143.987 497.368C145.754 495.424 147.955 493.003 149.652 489.18C151.507 484.996 150.562 482.752 149.442 481.607C148.424 480.568 146.835 480.06 144.944 480.06C142.447 480.06 139.426 480.946 136.505 482.664C134.908 483.603 133.595 485.086 132.205 486.655C128.929 490.355 124.854 494.955 114.548 495.008C112.511 495.018 110.793 495.13 109.349 495.355C109.94 485.612 138.779 474.794 130.257 455.435C120.437 433.127 131.911 419.547 122.571 416.094C121.93 415.856 121.35 415.744 120.824 415.744C114.722 415.744 115.897 430.89 112.753 442.332C111.853 445.606 108.793 447.53 105.036 449.159C102.918 443.228 94.7409 442.907 88.3907 438.746V305.715H224.214V314.312H250.518V305.715H263.683V314.315H250.529V328.494H263.683V328.496H250.529V342.676V356.86V371.038V371.04H263.683V371.038H277.48V356.86H263.683V342.676H276.833H311.582V356.236H311.345V371.04H311.582V384.636H300.717H237.763H224.612V398.816V466.806V480.987H237.763H300.717H311.582V540.334ZM200.672 458.863V509.626H247.754V504.902H205.055V458.863H200.672ZM114.472 540.334H102.43C104.13 536.109 106.309 532.462 109.094 530.272C121.89 520.215 125.93 509.39 127.857 502.119C129.843 494.616 140.659 492.468 140.769 492.447L140.546 491.086C140.069 491.176 128.831 493.404 126.624 501.742C124.75 508.814 120.816 519.352 108.34 529.156C105.248 531.586 102.878 535.609 101.064 540.209C101.314 537.73 101.657 535.213 102.127 532.683C103.482 526.239 105.435 521.046 109.355 519.611C120.457 515.546 122.269 510.804 111.278 499.758C110.277 498.752 109.696 497.746 109.462 496.732C110.854 496.51 112.538 496.398 114.554 496.387C125.404 496.332 129.689 491.496 133.131 487.61C134.508 486.056 135.697 484.712 137.118 483.876C139.852 482.267 142.704 481.423 144.972 481.423C146.51 481.423 147.778 481.811 148.56 482.61C150.03 484.114 149.338 486.69 148.497 488.583C146.89 492.2 144.862 494.434 143.072 496.404C140.583 499.142 138.616 501.304 139.614 505.504C139.809 506.327 140.034 507.16 140.262 507.994C141.844 513.83 143.337 519.342 135.053 523.356C133.109 524.299 131.326 525.052 129.753 525.718C123.314 528.442 119.022 530.259 114.472 540.334ZM311.582 328.496H276.833V328.494V314.315V305.715H299.257V314.312H311.582V328.496Z" fill="white"/>
</mask>
<g mask="url(#mask41_7_817)">
<path d="M311.582 540.334H115.901C120.119 531.276 123.981 529.643 130.219 527.004C131.808 526.332 133.605 525.572 135.58 524.614C144.88 520.108 143.079 513.467 141.49 507.607C141.267 506.788 141.047 505.97 140.854 505.16C140.036 501.716 141.607 499.987 143.987 497.368C145.754 495.424 147.955 493.003 149.652 489.18C151.507 484.996 150.562 482.752 149.442 481.607C148.424 480.568 146.835 480.06 144.944 480.06C142.447 480.06 139.426 480.946 136.505 482.664C134.908 483.603 133.595 485.086 132.205 486.655C128.929 490.355 124.854 494.955 114.548 495.008C112.511 495.018 110.793 495.13 109.349 495.355C109.94 485.612 138.779 474.794 130.257 455.435C120.437 433.127 131.911 419.547 122.571 416.094C121.93 415.856 121.35 415.744 120.824 415.744C114.722 415.744 115.897 430.89 112.753 442.332C111.853 445.606 108.793 447.53 105.036 449.159C102.918 443.228 94.7409 442.907 88.3907 438.746V305.715H224.214V314.312H250.518V305.715H263.683V314.315H250.529V328.494H263.683V328.496H250.529V342.676V356.86V371.038V371.04H263.683V371.038H277.48V356.86H263.683V342.676H276.833H311.582V356.236H311.345V371.04H311.582V384.636H300.717H237.763H224.612V398.816V466.806V480.987H237.763H300.717H311.582V540.334ZM200.672 458.863V509.626H247.754V504.902H205.055V458.863H200.672ZM114.472 540.334H102.43C104.13 536.109 106.309 532.462 109.094 530.272C121.89 520.215 125.93 509.39 127.857 502.119C129.843 494.616 140.659 492.468 140.769 492.447L140.546 491.086C140.069 491.176 128.831 493.404 126.624 501.742C124.75 508.814 120.816 519.352 108.34 529.156C105.248 531.586 102.878 535.609 101.064 540.209C101.314 537.73 101.657 535.213 102.127 532.683C103.482 526.239 105.435 521.046 109.355 519.611C120.457 515.546 122.269 510.804 111.278 499.758C110.277 498.752 109.696 497.746 109.462 496.732C110.854 496.51 112.538 496.398 114.554 496.387C125.404 496.332 129.689 491.496 133.131 487.61C134.508 486.056 135.697 484.712 137.118 483.876C139.852 482.267 142.704 481.423 144.972 481.423C146.51 481.423 147.778 481.811 148.56 482.61C150.03 484.114 149.338 486.69 148.497 488.583C146.89 492.2 144.862 494.434 143.072 496.404C140.583 499.142 138.616 501.304 139.614 505.504C139.809 506.327 140.034 507.16 140.262 507.994C141.844 513.83 143.337 519.342 135.053 523.356C133.109 524.299 131.326 525.052 129.753 525.718C123.314 528.442 119.022 530.259 114.472 540.334ZM311.582 328.496H276.833V328.494V314.315V305.715H299.257V314.312H311.582V328.496Z" fill="url(#paint41_linear_7_817)"/>
</g>
<mask id="mask42_7_817" style="mask-type:luminance" maskUnits="userSpaceOnUse" x="88" y="438" width="18" height="103">
<path d="M101.016 540.334H100.78C101.193 537.696 101.618 535.1 102.127 532.683C101.657 535.213 101.314 537.73 101.064 540.209C101.048 540.251 101.032 540.292 101.016 540.334ZM88.3907 498.438V476.898C88.6613 477.539 88.9536 478.199 89.27 478.876C95.751 492.772 92.7858 496.334 88.3907 498.438ZM88.3907 458.026V438.746C94.7409 442.907 102.918 443.228 105.036 449.159C99.4045 451.6 92.21 453.376 88.3907 458.026Z" fill="white"/>
</mask>
<g mask="url(#mask42_7_817)">
<path d="M101.016 540.334H100.78C101.193 537.696 101.618 535.1 102.127 532.683C101.657 535.213 101.314 537.73 101.064 540.209C101.048 540.251 101.032 540.292 101.016 540.334ZM88.3907 498.438V476.898C88.6613 477.539 88.9536 478.199 89.27 478.876C95.751 492.772 92.7858 496.334 88.3907 498.438ZM88.3907 458.026V438.746C94.7409 442.907 102.918 443.228 105.036 449.159C99.4045 451.6 92.21 453.376 88.3907 458.026Z" fill="url(#paint42_linear_7_817)"/>
</g>
<mask id="mask43_7_817" style="mask-type:luminance" maskUnits="userSpaceOnUse" x="109" y="480" width="42" height="61">
<path d="M115.901 540.334H114.472C119.022 530.259 123.314 528.442 129.753 525.718C131.326 525.052 133.109 524.299 135.053 523.356C143.337 519.342 141.844 513.83 140.262 507.994C140.034 507.16 139.809 506.327 139.614 505.504C138.616 501.304 140.583 499.142 143.072 496.404C144.862 494.434 146.89 492.2 148.497 488.583C149.338 486.69 150.03 484.114 148.56 482.61C147.778 481.811 146.51 481.423 144.972 481.423C142.704 481.423 139.853 482.267 137.118 483.876C135.697 484.712 134.508 486.056 133.131 487.61C129.689 491.496 125.404 496.332 114.554 496.387C112.538 496.398 110.854 496.51 109.462 496.732C109.356 496.275 109.321 495.816 109.349 495.355C110.793 495.13 112.511 495.018 114.548 495.008C124.854 494.955 128.929 490.355 132.205 486.655C133.595 485.086 134.908 483.603 136.505 482.664C139.426 480.946 142.447 480.06 144.944 480.06C146.835 480.06 148.424 480.568 149.442 481.607C150.562 482.752 151.507 484.996 149.652 489.18C147.955 493.003 145.754 495.424 143.987 497.368C141.607 499.987 140.036 501.716 140.854 505.16C141.047 505.97 141.267 506.788 141.49 507.607C143.079 513.467 144.88 520.108 135.58 524.614C133.605 525.572 131.808 526.332 130.219 527.004C123.981 529.643 120.119 531.276 115.901 540.334Z" fill="white"/>
</mask>
<g mask="url(#mask43_7_817)">
<path d="M115.901 540.334H114.472C119.022 530.259 123.314 528.442 129.753 525.718C131.326 525.052 133.109 524.299 135.053 523.356C143.337 519.342 141.844 513.83 140.262 507.994C140.034 507.16 139.809 506.327 139.614 505.504C138.616 501.304 140.583 499.142 143.072 496.404C144.862 494.434 146.89 492.2 148.497 488.583C149.338 486.69 150.03 484.114 148.56 482.61C147.778 481.811 146.51 481.423 144.972 481.423C142.704 481.423 139.853 482.267 137.118 483.876C135.697 484.712 134.508 486.056 133.131 487.61C129.689 491.496 125.404 496.332 114.554 496.387C112.538 496.398 110.854 496.51 109.462 496.732C109.356 496.275 109.321 495.816 109.349 495.355C110.793 495.13 112.511 495.018 114.548 495.008C124.854 494.955 128.929 490.355 132.205 486.655C133.595 485.086 134.908 483.603 136.505 482.664C139.426 480.946 142.447 480.06 144.944 480.06C146.835 480.06 148.424 480.568 149.442 481.607C150.562 482.752 151.507 484.996 149.652 489.18C147.955 493.003 145.754 495.424 143.987 497.368C141.607 499.987 140.036 501.716 140.854 505.16C141.047 505.97 141.267 506.788 141.49 507.607C143.079 513.467 144.88 520.108 135.58 524.614C133.605 525.572 131.808 526.332 130.219 527.004C123.981 529.643 120.119 531.276 115.901 540.334Z" fill="url(#paint43_linear_7_817)"/>
</g>
<mask id="mask44_7_817" style="mask-type:luminance" maskUnits="userSpaceOnUse" x="101" y="491" width="40" height="50">
<path d="M102.43 540.334H101.016C101.032 540.292 101.048 540.251 101.064 540.209C102.878 535.609 105.248 531.586 108.339 529.156C120.816 519.352 124.75 508.814 126.624 501.742C128.831 493.404 140.069 491.176 140.546 491.086L140.769 492.447C140.659 492.468 129.843 494.616 127.857 502.119C125.93 509.39 121.89 520.215 109.094 530.272C106.309 532.462 104.13 536.109 102.43 540.334Z" fill="white"/>
</mask>
<g mask="url(#mask44_7_817)">
<path d="M102.43 540.334H101.016C101.032 540.292 101.048 540.251 101.064 540.209C102.878 535.609 105.248 531.586 108.339 529.156C120.816 519.352 124.75 508.814 126.624 501.742C128.831 493.404 140.069 491.176 140.546 491.086L140.769 492.447C140.659 492.468 129.843 494.616 127.857 502.119C125.93 509.39 121.89 520.215 109.094 530.272C106.309 532.462 104.13 536.109 102.43 540.334Z" fill="url(#paint44_linear_7_817)"/>
</g>
<mask id="mask45_7_817" style="mask-type:luminance" maskUnits="userSpaceOnUse" x="88" y="415" width="44" height="126">
<path d="M100.78 540.334H94.5128C93.0718 528.439 92.7317 516.795 96.2452 514.651C104.007 509.911 103.884 492.464 102.74 476.022C101.828 462.903 118.34 456.418 118.507 456.354L118.079 455.054C117.359 455.328 100.478 461.952 101.463 476.126C102.578 492.135 102.752 509.088 95.6128 513.448C91.3834 516.031 91.7293 528.42 93.1704 540.334H88.3907V498.438C92.7858 496.334 95.751 492.772 89.27 478.876C88.9536 478.199 88.6613 477.539 88.3907 476.898V458.026C92.21 453.376 99.4045 451.6 105.036 449.159C108.793 447.53 111.853 445.606 112.753 442.332C115.897 430.89 114.722 415.744 120.824 415.744C121.35 415.744 121.93 415.856 122.571 416.094C131.911 419.547 120.437 433.127 130.257 455.435C138.779 474.794 109.94 485.612 109.349 495.355C109.321 495.816 109.356 496.275 109.462 496.732C109.696 497.746 110.277 498.752 111.278 499.758C122.269 510.804 120.457 515.546 109.355 519.611C105.435 521.046 103.482 526.239 102.127 532.683C101.618 535.1 101.193 537.696 100.78 540.334Z" fill="white"/>
</mask>
<g mask="url(#mask45_7_817)">
<path d="M100.78 540.334H94.5128C93.0718 528.439 92.7317 516.795 96.2452 514.651C104.007 509.911 103.884 492.464 102.74 476.022C101.828 462.903 118.34 456.418 118.507 456.354L118.079 455.054C117.359 455.328 100.478 461.952 101.463 476.126C102.578 492.135 102.752 509.088 95.6128 513.448C91.3834 516.031 91.7293 528.42 93.1704 540.334H88.3907V498.438C92.7858 496.334 95.751 492.772 89.27 478.876C88.9536 478.199 88.6613 477.539 88.3907 476.898V458.026C92.21 453.376 99.4045 451.6 105.036 449.159C108.793 447.53 111.853 445.606 112.753 442.332C115.897 430.89 114.722 415.744 120.824 415.744C121.35 415.744 121.93 415.856 122.571 416.094C131.911 419.547 120.437 433.127 130.257 455.435C138.779 474.794 109.94 485.612 109.349 495.355C109.321 495.816 109.356 496.275 109.462 496.732C109.696 497.746 110.277 498.752 111.278 499.758C122.269 510.804 120.457 515.546 109.355 519.611C105.435 521.046 103.482 526.239 102.127 532.683C101.618 535.1 101.193 537.696 100.78 540.334Z" fill="url(#paint45_linear_7_817)"/>
</g>
<path d="M94.5128 540.334H93.1704C91.7293 528.42 91.3834 516.031 95.6128 513.448C102.752 509.088 102.578 492.135 101.463 476.126C100.478 461.952 117.359 455.328 118.079 455.054L118.507 456.354C118.34 456.418 101.828 462.903 102.74 476.022C103.884 492.464 104.007 509.911 96.2451 514.651C92.7317 516.795 93.0718 528.439 94.5128 540.334Z" fill="white"/>
<mask id="mask46_7_817" style="mask-type:luminance" maskUnits="userSpaceOnUse" x="200" y="458" width="48" height="52">
<path d="M247.754 509.626H200.672V458.863H205.055V504.902H247.754V509.626Z" fill="white"/>
</mask>
<g mask="url(#mask46_7_817)">
<path d="M247.754 509.626H200.672V458.863H205.055V504.902H247.754V509.626Z" fill="url(#paint46_linear_7_817)"/>
</g>
<mask id="mask47_7_817" style="mask-type:luminance" maskUnits="userSpaceOnUse" x="250" y="305" width="62" height="67">
<path d="M263.683 371.041H250.529V328.497H263.683V328.494H250.529V314.315H263.683V305.715H276.833V314.315V328.494V328.497H311.582V342.677H276.833H263.683V356.861H277.48V371.038H263.683V371.041Z" fill="white"/>
</mask>
<g mask="url(#mask47_7_817)">
<path d="M263.683 371.041H250.529V328.497H263.683V328.494H250.529V314.315H263.683V305.715H276.833V314.315V328.494V328.497H311.582V342.677H276.833H263.683V356.861H277.48V371.038H263.683V371.041Z" fill="url(#paint47_linear_7_817)"/>
</g>
<mask id="mask48_7_817" style="mask-type:luminance" maskUnits="userSpaceOnUse" x="237" y="398" width="64" height="69">
<path d="M300.717 466.806H237.763V398.816H300.717V466.806ZM249.62 411.599V454.023H288.968V411.599H249.62Z" fill="white"/>
</mask>
<g mask="url(#mask48_7_817)">
<path d="M300.717 466.806H237.763V398.816H300.717V466.806ZM249.62 411.599V454.023H288.968V411.599H249.62Z" fill="url(#paint48_linear_7_817)"/>
</g>
<mask id="mask49_7_817" style="mask-type:luminance" maskUnits="userSpaceOnUse" x="224" y="305" width="27" height="10">
<path d="M224.214 314.312H250.518V305.715H224.214V314.312Z" fill="white"/>
</mask>
<g mask="url(#mask49_7_817)">
<path d="M224.214 314.312H250.518V305.715H224.214V314.312Z" fill="url(#paint49_linear_7_817)"/>
</g>
<mask id="mask50_7_817" style="mask-type:luminance" maskUnits="userSpaceOnUse" x="299" y="305" width="13" height="10">
<path d="M299.257 314.312H311.582V305.715H299.257V314.312Z" fill="white"/>
</mask>
<g mask="url(#mask50_7_817)">
<path d="M299.257 314.312H311.582V305.715H299.257V314.312Z" fill="url(#paint50_linear_7_817)"/>
</g>
<mask id="mask51_7_817" style="mask-type:luminance" maskUnits="userSpaceOnUse" x="224" y="384" width="88" height="97">
<path d="M311.582 480.987H224.612V384.636H311.582V480.987ZM237.763 398.816V466.806H300.717V398.816H237.763Z" fill="white"/>
</mask>
<g mask="url(#mask51_7_817)">
<path d="M311.582 480.987H224.612V384.636H311.582V480.987ZM237.763 398.816V466.806H300.717V398.816H237.763Z" fill="url(#paint51_linear_7_817)"/>
</g>
<mask id="mask52_7_817" style="mask-type:luminance" maskUnits="userSpaceOnUse" x="311" y="356" width="1" height="16">
<path d="M311.345 371.041H311.581V356.237H311.345V371.041Z" fill="white"/>
</mask>
<g mask="url(#mask52_7_817)">
<path d="M311.345 371.041H311.581V356.237H311.345V371.041Z" fill="url(#paint52_linear_7_817)"/>
</g>
<mask id="mask53_7_817" style="mask-type:luminance" maskUnits="userSpaceOnUse" x="249" y="411" width="40" height="44">
<path d="M249.62 454.023H288.968V411.599H249.62V454.023Z" fill="white"/>
</mask>
<g mask="url(#mask53_7_817)">
<path d="M249.62 454.023H288.968V411.599H249.62V454.023Z" fill="url(#paint53_linear_7_817)"/>
</g>
<mask id="mask54_7_817" style="mask-type:luminance" maskUnits="userSpaceOnUse" x="474" y="162" width="48" height="52">
<path d="M521.418 213.534H517.036V167.498H474.338V162.772H521.418V213.534Z" fill="white"/>
</mask>
<g mask="url(#mask54_7_817)">
<path d="M521.418 213.534H517.036V167.498H474.338V162.772H521.418V213.534Z" fill="url(#paint54_linear_7_817)"/>
</g>
<mask id="mask55_7_817" style="mask-type:luminance" maskUnits="userSpaceOnUse" x="200" y="162" width="48" height="52">
<path d="M247.754 162.772V167.498H205.055V213.534H200.672V162.772H247.754Z" fill="white"/>
</mask>
<g mask="url(#mask55_7_817)">
<path d="M247.754 162.772V167.498H205.055V213.534H200.672V162.772H247.754Z" fill="url(#paint55_linear_7_817)"/>
</g>
<path d="M107.133 522.135H106.024V423.558H107.133V522.135Z" fill="#E0E0E0"/>
<path d="M143.239 522.135H142.129V423.558H143.239V522.135Z" fill="#E0E0E0"/>
<path d="M179.345 522.135H178.235V423.558H179.345V522.135Z" fill="#E0E0E0"/>
<path d="M215.451 522.135H214.341V423.558H215.451V522.135Z" fill="#E0E0E0"/>
<path d="M251.557 522.135H250.448V423.558H251.557V522.135Z" fill="#E0E0E0"/>
<path d="M287.663 522.135H286.554V423.558H287.663V522.135Z" fill="#E0E0E0"/>
<path d="M119.137 522.135C119.137 522.135 135.193 458.854 156.252 465.553C177.314 472.254 170.57 501.45 187.923 501.45C202.514 501.45 202.519 452.15 221.163 452.71C239.807 453.27 238.162 489.749 259.01 466.298C279.857 442.846 276.406 440.07 287.109 440.07V522.135H119.137Z" fill="#1487E3"/>
<path d="M106.579 522.135C106.579 522.135 115.167 483.049 130.358 488.633C145.55 494.215 136.387 516.179 153.225 516.179C170.065 516.179 166.612 469.889 185.601 473.118C204.59 476.347 193.787 502.778 207.302 503.523C220.818 504.267 221.823 444.239 253.257 446.705C284.691 449.175 287.109 522.135 287.109 522.135H106.579Z" fill="#78C2FF"/>
<path d="M525.092 462.966C525.092 462.966 522.856 462.693 521.801 462.754C520.746 462.815 516.074 465.645 514.499 465.563C512.926 465.481 502.406 461.775 501.917 461.478C501.429 461.183 502.047 460.371 502.047 460.371L525.323 457.911L525.092 462.966Z" fill="#EEA886"/>
<path d="M509.689 458.199C509.689 458.199 507.091 459.371 505.933 460.686C505.673 460.982 505.468 461.32 505.627 461.694C505.781 462.068 506.484 462.299 507.634 461.854C508.784 461.406 510.458 461.396 510.458 461.396C510.458 461.396 511.516 460.564 509.689 458.199Z" fill="#EEA886"/>
<path d="M543.799 422.518L546.202 448.95C546.202 448.95 547.25 452.215 540.385 453.418C533.377 454.647 522.428 457.214 522.428 457.214C522.428 457.214 522.609 466.027 523.531 466.082C526.204 466.235 546.092 462.603 553.969 460.808C560.216 459.386 556.301 423.348 556.301 423.348L543.799 422.518Z" fill="#282B45"/>
<path d="M524.755 454.087C524.755 454.087 522.58 454.714 521.529 454.821C520.479 454.929 515.467 452.879 513.922 453.211C512.378 453.543 502.483 458.891 502.04 459.262C501.6 459.634 502.322 460.338 502.322 460.338L525.68 459.049L524.755 454.087Z" fill="#EEA886"/>
<path d="M550.564 593.837C550.564 593.837 545.721 597.007 543.525 598.192C541.331 599.375 532.753 599.818 531.916 600.696C531.076 601.578 531.418 604.338 532.844 604.6C534.268 604.864 544.71 605.749 548.18 604.825C551.65 603.904 558.174 605.295 559.609 604.75C561.045 604.202 560.021 595.837 559.443 593.966C558.867 592.091 550.564 593.837 550.564 593.837Z" fill="#292C47"/>
<path d="M550.12 590.415L550.564 593.837C550.564 593.837 557.099 595.066 559.062 593.958L558.534 590.404L550.12 590.415Z" fill="#3D416B"/>
<path d="M537.23 470.572C537.046 472.939 536.9 478.102 536.79 483.527C536.766 484.734 536.744 485.954 536.724 487.159C536.601 494.466 536.539 501.228 536.539 501.228C536.859 510.415 538.208 530.3 540.746 534.768C544.172 540.795 548.144 590.956 548.144 590.956L560.72 592.413C560.72 592.413 561.499 558.876 559.62 550.12C557.524 540.34 553.492 527.008 555.794 518.11C557.241 512.527 560.253 494.558 560.253 494.558C560.253 494.558 563.472 474.348 560.13 458.836C559.294 454.96 537.23 470.572 537.23 470.572Z" fill="#292C47"/>
<path d="M528.962 593.837C528.962 593.837 524.119 597.007 521.924 598.192C519.726 599.375 511.151 599.818 510.313 600.696C509.474 601.578 509.815 604.338 511.24 604.6C512.665 604.864 523.106 605.749 526.576 604.825C530.046 603.904 536.57 605.295 538.006 604.75C539.443 604.202 538.419 595.837 537.841 593.966C537.262 592.091 528.962 593.837 528.962 593.837Z" fill="#292C47"/>
<path d="M528.516 590.415L528.962 593.837C528.962 593.837 535.496 595.066 537.46 593.958L536.931 590.404L528.516 590.415Z" fill="#3D416B"/>
<path d="M525.812 591.973H538.709C538.709 591.973 543.036 565.086 543.394 553.24V553.239C543.432 551.951 543.423 550.843 543.358 549.966C543.171 547.454 542.894 544.698 542.638 541.85L542.631 541.789C541.873 533.309 541.312 523.999 543.918 517.694C546.106 512.401 551.522 495.097 551.522 495.097C551.522 495.097 557.45 475.615 556.249 459.742C555.948 455.778 533.035 465.745 533.035 465.745C532.536 468.054 531.002 475.327 530.458 480.723C527.355 511.543 528.518 531.623 528.518 531.623C530.289 538.428 525.812 591.973 525.812 591.973Z" fill="#292C47"/>
<path d="M535.036 400.03C535.036 400.03 530.558 411.496 529.638 417.638C528.718 423.78 532.494 440.592 532.663 444.067C533.194 454.847 533.435 466.768 533.435 466.768L555.267 477.259C555.267 477.259 557.587 467.676 559.142 455.96C560.697 444.244 559.541 434.11 558.572 427.371C555.532 406.23 543.263 396.003 543.263 396.003L535.036 400.03Z" fill="#CFBEB6"/>
<path d="M518.478 379.394C518.478 379.394 516.965 385.708 518.544 386.206C519.851 386.62 518.622 392.748 518.501 393.728C518.379 394.707 520.922 394.722 521.561 395.162C522.201 395.602 525.326 402.279 527.345 401.97C529.365 401.659 537.484 395.971 539.283 392.616C541.081 389.263 540.266 376.492 537.471 371.756C534.676 367.022 521.174 368.35 518.478 379.394Z" fill="#EEA886"/>
<path d="M530.796 394.95C530.796 394.95 530.951 395.571 531.178 396.527C531.273 396.927 531.379 397.387 531.494 397.887C531.58 398.267 531.67 398.67 531.762 399.085C531.792 399.235 531.825 399.385 531.859 399.538C532.006 400.237 532.155 400.969 532.29 401.689C532.641 403.553 532.902 405.347 532.855 406.375C532.735 409.194 542.067 395.866 542.067 395.866C542.067 395.866 539.889 387.054 538.937 376.906C537.987 366.759 530.796 394.95 530.796 394.95Z" fill="#EEA886"/>
<path d="M518.199 380.748C518.199 380.748 513.977 375.486 518.125 369.647C522.276 363.807 533.601 369.111 534.744 369.126C535.885 369.138 541.969 367.966 541.645 380.328C541.357 391.332 540.852 390.859 540.852 390.859C540.852 390.859 537.708 386.239 536.389 385.66C534.333 384.759 530.579 386.103 530.579 386.103C530.579 386.103 531.21 380.398 528.19 380.416C525.173 380.434 520.818 378.827 518.199 380.748Z" fill="#FCCCA2"/>
<path d="M532.931 382.307C533.021 381.524 533.128 378.231 535.993 379.387C538.854 380.543 536.204 387.4 535.794 387.59C535.384 387.778 532.193 388.896 532.931 382.307Z" fill="#EEA886"/>
<path d="M532.042 470.594C532.042 470.594 533.044 465.515 533.238 464.754L562.696 470.038L562.394 474.145C562.394 474.145 541.169 472.775 532.042 470.594Z" fill="#23263D"/>
<path d="M562.782 445.19C562.782 445.19 561.208 467.286 571.625 491.03C572.897 493.928 552.123 493.778 552.123 493.778L562.782 445.19Z" fill="#5A609C"/>
<path d="M532.435 425.532C532.819 427.971 533.155 430.434 533.441 432.896V432.899C534.015 437.807 534.405 442.734 534.659 447.538C534.686 448.04 534.71 448.539 534.733 449.036C534.772 449.844 534.807 450.647 534.838 451.447C534.878 452.512 534.914 453.568 534.94 454.615C535.533 476.47 543.026 493.687 543.026 493.687C543.026 493.687 557.92 494.787 561.753 492.538C561.753 492.538 564.425 467.931 563.21 443.602C563.116 441.723 563.001 439.847 562.857 437.983V437.978C561.344 418.278 554.142 399.223 543.207 396.003C542.947 396.266 530.407 412.715 532.435 425.532Z" fill="#5A609C"/>
<path d="M484.315 464.451L523.181 462.757L523.038 458.918L484.172 460.613L484.315 464.451Z" fill="#807066"/>
<path d="M471.157 424.981L484.304 464.451L487.657 463.153L474.511 423.683L471.157 424.981Z" fill="#807066"/>
<path d="M537.46 529.264C538.556 536.907 543.287 552.885 543.394 553.239C543.432 551.951 543.423 550.843 543.358 549.966C543.171 547.454 542.894 544.698 542.638 541.85L542.631 541.789C542.386 539.311 540.737 534.743 539.643 531.638C538.535 528.508 537.46 516.092 537.46 516.092C537.46 516.092 536.353 521.534 537.46 529.264Z" fill="#191B2B"/>
<path d="M531.859 399.538C532.006 400.236 532.155 400.968 532.29 401.688C535.034 399.655 538.186 394.254 538.38 393.918C537.262 395.67 531.94 399.476 531.859 399.538Z" fill="#A77860"/>
<path d="M534.729 446.298C534.759 446.786 534.781 447.272 534.806 447.758C534.844 448.547 534.879 449.332 534.909 450.111C538.254 449.376 544.599 447.538 546.51 443.891C549.113 438.916 542.621 427.298 542.481 427.047C542.54 427.358 545.259 441.666 542.478 443.087C540.678 444.01 536.936 445.271 534.729 446.298Z" fill="#414670"/>
<path d="M532.489 409.798C532.489 409.798 530.216 422.027 532.213 436.631C533.885 448.851 534.532 457.622 534.532 457.622L533.693 461.07L532.167 458.42C532.167 458.42 529.537 442.767 529.046 436.258C528.551 429.694 528.029 420.879 531.551 409.728L532.489 409.798Z" fill="#282B45"/>
<path d="M532.636 409.806C532.636 409.806 532.356 410.196 531.904 410.348C531.452 410.495 530.68 409.804 532.573 406.059L532.636 409.806Z" fill="#282B45"/>
<path d="M541.741 394.471C541.741 394.471 535.991 402.361 532.213 404.506L532.361 411.145L543.263 396.003L541.741 394.471Z" fill="#EDDAD3"/>
<path d="M554.232 416.126C553.786 413.108 550.523 400.282 543.799 402.168C537.077 404.054 538.971 412.782 540.437 419.356C541.972 426.238 547.467 442.856 546.51 443.891C545.552 444.926 537.769 448.731 536.073 449.36C534.377 449.988 523.593 453.682 522.761 454.064C521.95 454.443 526.934 463.952 526.934 463.952C526.934 463.952 553.81 454.071 558.369 450.875C562.928 447.68 554.232 416.126 554.232 416.126Z" fill="#5A609C"/>
<path d="M165.807 410.687C151.528 416.194 136.138 411.225 126.861 399.469C124.65 396.666 122.785 393.479 121.367 389.954C121.055 389.175 120.763 388.381 120.493 387.571C117.795 379.435 117.81 370.966 120.032 363.311C123.24 352.263 131.046 342.914 141.934 338.715C145.526 337.33 149.192 336.61 152.81 336.491C167.754 336.003 181.94 345.831 187.247 361.83C193.84 381.705 184.241 403.579 165.807 410.687ZM198.387 357.537C191.31 336.197 172.393 323.09 152.457 323.737C147.63 323.893 142.744 324.855 137.949 326.703C123.429 332.303 113.015 344.777 108.738 359.509C105.771 369.719 105.753 381.015 109.352 391.866C109.71 392.947 110.099 394.009 110.517 395.045C112.41 399.745 114.895 403.997 117.847 407.734C130.218 423.415 150.746 430.043 169.793 422.699C194.378 413.219 207.18 384.045 198.387 357.537Z" fill="#4AAFFF"/>
<path d="M120.032 363.311L108.738 359.508C113.015 344.776 123.429 332.303 137.949 326.703C142.744 324.855 147.63 323.892 152.457 323.736L152.81 336.491C149.192 336.61 145.526 337.33 141.934 338.715C131.046 342.914 123.24 352.263 120.032 363.311Z" fill="#1A598C"/>
<path d="M121.367 389.954L110.517 395.044C110.099 394.008 109.71 392.947 109.352 391.866C105.753 381.015 105.771 369.719 108.738 359.508L120.032 363.311C117.81 370.966 117.795 379.435 120.493 387.571C120.763 388.38 121.055 389.175 121.367 389.954Z" fill="#2273B5"/>
<path d="M117.847 407.734C114.895 403.997 112.41 399.745 110.517 395.045L121.367 389.954C122.785 393.479 124.65 396.666 126.861 399.469L117.847 407.734Z" fill="#3788CC"/>
<path d="M239.4 330.486H220.828C220.201 330.486 219.693 329.938 219.693 329.262V324.938C219.693 324.26 220.201 323.712 220.828 323.712H239.4C240.027 323.712 240.536 324.26 240.536 324.938V329.262C240.536 329.938 240.027 330.486 239.4 330.486Z" fill="#4AAFFF"/>
<path d="M239.4 346.726H220.828C220.201 346.726 219.693 346.178 219.693 345.502V341.176C219.693 340.502 220.201 339.952 220.828 339.952H239.4C240.027 339.952 240.536 340.502 240.536 341.176V345.502C240.536 346.178 240.027 346.726 239.4 346.726Z" fill="#E0E0E0"/>
<path d="M239.4 362.966H220.828C220.201 362.966 219.693 362.416 219.693 361.742V357.416C219.693 356.742 220.201 356.194 220.828 356.194H239.4C240.027 356.194 240.536 356.742 240.536 357.416V361.742C240.536 362.416 240.027 362.966 239.4 362.966Z" fill="#E0E0E0"/>
<path d="M239.4 379.203H220.828C220.201 379.203 219.693 378.655 219.693 377.979V373.655C219.693 372.978 220.201 372.431 220.828 372.431H239.4C240.027 372.431 240.536 372.978 240.536 373.655V377.979C240.536 378.655 240.027 379.203 239.4 379.203Z" fill="#E0E0E0"/>
<path d="M239.4 395.443H220.828C220.201 395.443 219.693 394.895 219.693 394.219V389.895C219.693 389.219 220.201 388.671 220.828 388.671H239.4C240.027 388.671 240.536 389.219 240.536 389.895V394.219C240.536 394.895 240.027 395.443 239.4 395.443Z" fill="#E0E0E0"/>
<path d="M239.4 411.685H220.828C220.201 411.685 219.693 411.137 219.693 410.459V406.137C219.693 405.459 220.201 404.911 220.828 404.911H239.4C240.027 404.911 240.536 405.459 240.536 406.137V410.459C240.536 411.137 240.027 411.685 239.4 411.685Z" fill="#E0E0E0"/>
<path d="M286.642 330.486H250.164C249.599 330.486 249.142 329.992 249.142 329.384V324.815C249.142 324.207 249.599 323.712 250.164 323.712H286.642C287.205 323.712 287.663 324.207 287.663 324.815V329.384C287.663 329.992 287.205 330.486 286.642 330.486Z" fill="#4AAFFF"/>
<path d="M286.642 346.726H250.164C249.599 346.726 249.142 346.231 249.142 345.623V341.056C249.142 340.447 249.599 339.952 250.164 339.952H286.642C287.205 339.952 287.663 340.447 287.663 341.056V345.623C287.663 346.231 287.205 346.726 286.642 346.726Z" fill="#E0E0E0"/>
<path d="M286.642 362.966H250.164C249.599 362.966 249.142 362.471 249.142 361.86V357.294C249.142 356.686 249.599 356.194 250.164 356.194H286.642C287.205 356.194 287.663 356.686 287.663 357.294V361.86C287.663 362.471 287.205 362.966 286.642 362.966Z" fill="#E0E0E0"/>
<path d="M286.642 379.203H250.164C249.599 379.203 249.142 378.71 249.142 378.102V373.532C249.142 372.924 249.599 372.431 250.164 372.431H286.642C287.205 372.431 287.663 372.924 287.663 373.532V378.102C287.663 378.71 287.205 379.203 286.642 379.203Z" fill="#E0E0E0"/>
<path d="M286.642 395.443H250.164C249.599 395.443 249.142 394.95 249.142 394.34V389.774C249.142 389.166 249.599 388.671 250.164 388.671H286.642C287.205 388.671 287.663 389.166 287.663 389.774V394.34C287.663 394.95 287.205 395.443 286.642 395.443Z" fill="#E0E0E0"/>
<path d="M286.642 411.685H250.164C249.599 411.685 249.142 411.19 249.142 410.581V406.013C249.142 405.405 249.599 404.911 250.164 404.911H286.642C287.205 404.911 287.663 405.405 287.663 406.013V410.581C287.663 411.19 287.205 411.685 286.642 411.685Z" fill="#E0E0E0"/>
<path d="M187.734 425.008L207.839 436.923L228.029 402.668L203.61 393.523L187.734 425.008Z" fill="#292C47"/>
<path d="M189.008 423.98L207.811 435.122L226.691 403.087L203.854 394.534L189.008 423.98Z" fill="#E2D2CA"/>
<path d="M182.123 417.989C182.123 417.989 185.622 416.185 187.158 415.242C188.695 414.298 192.645 413.003 192.964 412.695C193.283 412.387 204.677 411.631 205.367 410.989C206.059 410.346 206.732 412.494 203.778 413.193C200.825 413.89 196.716 415.593 196.491 416.838C196.267 418.083 199.525 418.378 199.854 419.403C200.184 420.427 199.762 420.197 199.295 420.417C198.827 420.638 195.42 418.603 193.921 419.179C192.423 419.757 190.132 418.957 188.983 419.381C187.834 419.805 182.25 421.833 182.25 421.833L182.123 417.989Z" fill="#EEA886"/>
<path d="M208.818 432.626C208.818 432.626 211.759 429.772 213.18 428.579C214.604 427.386 217.274 423.876 217.667 423.671C218.06 423.467 223.158 412.187 223.989 411.735C224.82 411.283 223.203 409.763 221.444 412.491C219.684 415.22 216.595 418.732 215.419 418.475C214.244 418.219 215.255 414.794 214.487 414.06C213.721 413.326 213.756 413.844 213.383 414.234C213.008 414.622 213.46 418.876 212.373 420.176C211.283 421.471 211.09 424.111 210.273 425.114C209.455 426.116 205.51 430.999 205.51 430.999L208.818 432.626Z" fill="#EEA886"/>
<path d="M145.508 585.099C145.508 585.099 144.871 589.861 144.793 590.573C144.713 591.288 137.717 590.152 137.717 590.152L137.152 584.487C137.152 584.487 144.634 584.427 145.508 585.099Z" fill="#424773"/>
<path d="M144.866 589.968C144.866 589.968 147.082 592.835 149.227 594.084C151.368 595.336 154.737 595.83 156.005 597.124C156.92 598.059 159.338 602.079 150.436 601.999C141.532 601.916 137.241 602.567 136.287 601.025C135.334 599.482 137.667 589.645 137.667 589.645C137.667 589.645 139.775 590.464 144.866 589.968Z" fill="#292C47"/>
<path d="M195.624 585.099C195.624 585.099 194.989 589.861 194.909 590.573C194.83 591.288 187.836 590.152 187.836 590.152L187.269 584.487C187.269 584.487 194.75 584.427 195.624 585.099Z" fill="#424773"/>
<path d="M194.984 589.968C194.984 589.968 197.2 592.835 199.343 594.084C201.487 595.336 209.375 596.36 210.643 597.655C211.556 598.59 213.08 602.35 200.552 601.999C191.655 601.748 187.358 602.567 186.404 601.026C185.45 599.482 187.785 589.645 187.785 589.645C187.785 589.645 189.772 590.519 194.984 589.968Z" fill="#292C47"/>
<path d="M151.299 462.815C151.299 462.815 144.727 474.075 145.217 484.25C145.708 494.428 142.834 505.538 141.847 516.17C140.747 528.02 136.243 556.079 136.079 562.416C135.915 568.756 136.778 588.999 136.778 588.999L145.795 589.223C145.795 589.223 153.368 540.171 155.328 535.167C157.29 530.163 167.016 494.48 167.343 490.476C167.672 486.472 151.299 462.815 151.299 462.815Z" fill="#292C47"/>
<path d="M185.897 464.342C185.897 464.342 190.851 492.235 191.505 498.463C192.158 504.692 192.593 528.604 192.921 532.498C193.249 536.391 195.1 583.439 196.844 589.223H185.317C185.317 589.223 176.468 555.02 176.468 538.838C176.468 522.655 169.632 503.656 165.218 492.978C160.806 482.303 150.704 482.048 147.991 462.239C147.991 462.239 182.225 458.059 185.897 464.342Z" fill="#292C47"/>
<path d="M162.267 368.163C162.267 368.163 171.089 364.611 175.156 371.851C179.223 379.09 178.83 393.584 174.384 395.368C169.938 397.15 163.259 396.218 160.981 391.687C158.707 387.158 156.65 380.608 156.749 376.231C156.847 371.855 159.95 369.426 162.267 368.163Z" fill="#EEA886"/>
<path d="M173.427 395.699C173.427 395.699 173.06 398.267 173.667 399.532C174.273 400.798 162.238 400.831 162.238 400.831C162.238 400.831 161.259 393.95 159.409 388.138C157.557 382.322 173.427 395.699 173.427 395.699Z" fill="#EEA886"/>
<path d="M159.409 388.138C159.409 388.138 160.239 389.614 163.63 389.039C167.021 388.468 171.158 383.603 172.573 383.07C173.99 382.535 174.002 381.638 174.002 381.638L174.889 383.035L176.393 383.138C176.393 383.138 175.021 378.786 177.09 377.012C179.159 375.238 174.942 362.928 164.068 367.027C164.068 367.027 155.717 369.508 156.02 374.631C156.324 379.751 157.54 385.584 159.409 388.138Z" fill="#3A3F47"/>
<path d="M174.382 399.38C174.382 399.38 174.344 396.963 173.327 396.731C172.31 396.499 162.11 395.442 160.865 395.971V398.787C160.865 398.787 163.268 400.38 174.382 399.38Z" fill="#E2D2CA"/>
<path d="M173.778 379.776C173.588 378.916 171.561 376.463 170.786 379.09C170.01 381.719 171.959 385.254 173.044 384.952C174.131 384.648 174.261 381.954 173.778 379.776Z" fill="#EEA886"/>
<path d="M143.885 489.638C143.885 489.638 149.296 491.354 158.521 492.45C167.746 493.546 190.798 492.054 190.941 490.879C191.088 489.704 185.983 447.123 186.275 444.928C186.563 442.738 186.72 434.923 186.72 434.923C186.834 437.064 188.857 445.808 191.3 450.576C192.18 452.299 195.141 457.696 196.568 456.47C203.472 450.526 214.166 428.124 214.845 427.935C214.275 427.668 209.777 425.435 209.146 425.207C208.592 425.01 203.612 430.695 200.592 434.22C199.247 435.794 198.292 436.935 198.292 436.935C197.42 434.82 194.244 421.502 193.257 416.89C191.031 406.494 191.376 406.06 191.376 406.06C184.625 403.86 174.382 399.38 174.382 399.38L160.865 398.787C160.865 398.787 148.457 401.73 143.572 404.11C143.109 404.336 143.106 416.043 141.835 419.111L145.885 428.326C145.885 428.326 148.225 446.578 148.711 454.694C148.935 458.42 143.885 489.638 143.885 489.638Z" fill="#323657"/>
<path d="M141.273 434.31C141.626 435.54 143.229 436.578 144.271 437.03C144.936 437.322 145.683 437.416 146.434 437.266L146.963 437.16L156.227 435.306C156.227 435.306 158.254 410.139 143.572 404.11C143.184 404.248 138.031 423.043 141.273 434.31Z" fill="#323657"/>
<path d="M144.271 437.03C144.936 437.322 145.683 437.416 146.434 437.266L146.963 437.16L146.051 424.299L144.271 437.03Z" fill="#252840"/>
<path d="M198.292 436.935L199.423 442.103C199.423 442.103 200.651 436.916 200.592 434.22C199.247 435.794 198.292 436.935 198.292 436.935Z" fill="#252840"/>
<path d="M159.753 369.018C159.753 369.018 148.193 367.58 159.557 388.4L159.753 369.018Z" fill="#3A3F47"/>
<path d="M218.735 400.831L219.909 398.654L210.654 395.21L209.478 397.374L218.735 400.831Z" fill="#292C47"/>
<path d="M324.959 420.541C324.959 420.541 326.793 418.709 326.429 417.337C326.12 416.166 326.585 414.861 326.701 414.321C326.857 413.598 326.921 411.267 327.419 411.397C328.261 411.615 328.065 415.338 328.169 416.133C328.272 416.925 330.502 414.269 331.262 414.13C332.023 413.989 335.894 418.218 334.17 419.849C332.444 421.481 330.066 422.142 329.815 422.494C329.565 422.847 328.384 423.812 328.384 423.812L324.959 420.541Z" fill="#EEA987"/>
<path d="M330.776 414.408C330.776 414.408 336.364 409.79 336.975 409.818C337.585 409.847 337.801 410.19 337.295 410.643C336.789 411.098 332.017 415.272 332.017 415.272C332.017 415.272 339.48 411.006 339.986 410.911C340.283 410.856 340.505 411.466 340.257 411.736C340.007 412.007 333.059 416.715 333.059 416.715C333.059 416.715 340.035 412.747 340.48 412.803C340.869 412.852 341.147 413.546 340.65 413.878C340.152 414.211 333.868 418.292 333.868 418.292C333.868 418.292 339.114 415.747 339.466 416.032C339.679 416.208 339.982 416.595 338.607 417.206C337.234 417.816 334.248 419.767 334.248 419.767L330.776 414.408Z" fill="#EEA987"/>
<path d="M286.146 364.846C286.146 364.846 299.51 363.646 299.147 378.806C298.781 393.966 296.552 396.247 299.153 406.959C301.755 417.671 286.122 400.877 286.122 400.877L286.146 364.846Z" fill="#E8734D"/>
<path d="M245.429 591.728C245.429 591.728 240.466 599.246 241.148 600.436C241.828 601.627 247.047 601.799 250.224 600.436C253.401 599.076 253.477 590.264 254.913 586.48C255.516 584.895 254.228 580.218 252.418 579.879C250.608 579.539 248.638 580.535 248.638 580.535C248.638 580.535 250.517 585.866 245.429 591.728Z" fill="#363A5E"/>
<path d="M248.604 580.475C248.604 580.475 247.56 583.676 247.179 586.732C246.864 589.267 243.643 594.65 243.794 595.331C243.945 596.013 248.031 596.63 249.694 594.873C251.358 593.119 252.429 588.015 252.796 584.961C253.136 582.116 253.569 580.713 253.569 580.713C253.569 580.713 250.193 578.603 248.604 580.475Z" fill="#EEA886"/>
<path d="M288.63 591.854C288.63 591.854 283.844 599.246 284.526 600.436C285.206 601.627 290.426 601.799 293.604 600.436C296.78 599.076 296.855 590.264 298.292 586.48C298.895 584.895 297.606 580.218 295.797 579.879C293.985 579.539 291.863 580.608 291.863 580.608C291.863 580.608 293.715 585.992 288.63 591.854Z" fill="#363A5E"/>
<path d="M291.863 580.608C291.863 580.608 291.486 584.098 290.878 586.564C290.275 589.032 287.022 594.65 287.173 595.331C287.324 596.013 291.409 596.63 293.074 594.873C294.738 593.119 296.023 588.037 296.174 584.961C296.326 581.886 295.797 579.879 295.797 579.879C295.797 579.879 293.452 578.737 291.863 580.608Z" fill="#EEA886"/>
<path d="M267.955 458.226C267.955 458.226 263.696 480.518 262.719 486.13C261.74 491.74 259.002 518.92 258.707 523.543C258.414 528.166 254.264 545.58 254.459 547.231C254.656 548.882 247.719 581.599 247.719 581.599C247.719 581.599 252.634 582.173 254.594 581.287C255.932 580.685 266.691 551.174 266.691 542.92C266.691 531.514 272.6 516.619 273.457 514.022C281.889 488.463 283.436 482.396 284.61 480.856C284.61 480.856 284.788 482.94 285.188 486.404C285.647 490.387 287.661 518.835 288.541 522.576C289.422 526.316 288.739 538.971 289.227 545.355C289.716 551.737 290.622 580.851 290.622 580.851C290.622 580.851 295.037 581.058 296.984 579.806C297.636 579.388 299.888 548.523 299.985 540.931C300.082 533.338 300.187 522.866 300.376 519.582C302.188 488.116 306.642 483.624 299.628 461.354C286.493 419.658 267.955 458.226 267.955 458.226Z" fill="#313657"/>
<path d="M255.047 585.819V593.69H254.139V587.606L255.047 585.819Z" fill="#363A5E"/>
<path d="M298.426 585.819V593.69H297.518V587.606L298.426 585.819Z" fill="#363A5E"/>
<path d="M280.583 405.182C280.583 405.182 281.757 402.203 282.631 398.862C282.673 398.703 282.711 398.544 282.748 398.383C282.854 397.948 282.949 397.508 283.037 397.071C283.084 396.822 283.128 396.575 283.171 396.327C283.481 394.486 283.568 392.724 283.173 391.47C281.877 387.342 291.299 390.199 291.299 390.199C291.299 390.199 289.472 401.119 291.299 404.802C293.125 408.482 280.583 405.182 280.583 405.182Z" fill="#EEA886"/>
<path d="M296.563 405.003C297.615 403.584 290.234 403.091 290.234 403.091L281.627 402.291C281.627 402.291 275.706 403.354 271.114 405.068C266.521 406.783 260.502 416.164 260.502 416.164C260.502 416.164 268.805 437.178 270.395 443.207C271.984 449.239 268.592 464.584 268.592 464.584C278.545 470.426 298.197 465.208 298.197 465.208C298.197 465.208 290.363 413.371 296.563 405.003Z" fill="#EDDAD3"/>
<path d="M300.076 430.331C300.076 430.331 299.687 431.21 298.626 434.679C297.544 424.937 298.111 419.866 298.111 419.866C298.227 425.074 300.076 430.331 300.076 430.331Z" fill="#CFBEB8"/>
<path d="M290.714 402.767L280.582 411.671L281.627 402.291C281.627 402.291 287.534 400.916 290.714 402.767Z" fill="#EEA886"/>
<path d="M297.398 440.288C296.004 446.519 303.055 466.019 303.055 466.019L291.157 470.363C289.686 470.899 288.117 469.899 287.844 468.251C286.502 460.139 283.024 438.39 282.631 428.747C282.143 416.764 290.233 402.631 290.233 402.631C304.612 405.292 300.67 428.747 300.67 428.747C300.67 428.747 300.149 430.223 299.45 432.532V432.534C299.274 433.114 299.089 433.747 298.896 434.422C298.404 436.155 297.874 438.17 297.398 440.288Z" fill="#494F80"/>
<path d="M280.607 402.805L280.783 402.291C280.783 402.291 273.42 403.499 269.677 405.514C265.936 407.527 258.769 417.942 258.769 417.942L268.141 431.281C268.153 441.53 264.835 465.582 264.835 465.582L271.347 468.455C272.362 468.902 273.476 468.11 273.492 466.929C273.598 459.609 273.914 437.925 274.073 429.465C274.267 419.21 281.053 402.631 281.053 402.631C280.903 402.687 280.754 402.745 280.607 402.805Z" fill="#494F80"/>
<path d="M267.255 450.87C267.255 450.87 274.322 451.166 275.42 450.87C276.521 450.574 283.852 447.145 284.292 443.758C284.732 440.373 267.255 446.795 267.255 446.795V450.87Z" fill="#EEA886"/>
<path d="M289.179 440.288L260.502 436.67L273.457 448.032L289.179 440.288Z" fill="#707070"/>
<path d="M273.457 448.032L289.179 442.255V440.288L272.928 445.91L273.457 448.032Z" fill="#A1A1A1"/>
<path d="M282.156 400.56L276.708 409.88L274.073 411.671L280.214 402.391L282.156 400.56Z" fill="#FAE6DE"/>
<path d="M276.708 409.88L280.582 411.671L281.627 402.291L282.156 400.56L276.708 409.88Z" fill="#D6C5BE"/>
<path d="M268.119 446.51C268.119 446.51 267.825 450.444 268.119 451.27C268.119 451.27 250.434 449.366 248.786 446.699C247.137 444.032 247.196 440.796 247.196 440.796L268.119 446.51Z" fill="#494F80"/>
<path d="M273.457 448.032L265.095 414.515L233.299 410.896L242.015 441.748L273.457 448.032Z" fill="#A1A1A1"/>
<path d="M314.67 428.871C316.264 427.454 317.202 426.933 319.123 425.149C322.114 422.371 325.938 418.859 325.938 418.859L329.572 424.61C329.572 424.61 320.782 432.939 316.113 437.885C316.113 437.885 310.2 444.729 308.879 444.123C307.557 443.518 302.847 436.151 299.082 429.073C295.319 421.991 293.635 417.471 293.447 414.387C293.256 411.305 302.726 409.818 302.726 409.818L310.137 427.273C310.137 427.273 311.458 429.77 312.128 430.525C312.128 430.525 313.794 429.503 314.67 428.871Z" fill="#494F80"/>
<path d="M287.453 366.379C284.14 365.796 276.559 366.692 274.412 376.071C274.412 376.071 274.406 378.668 274.769 380.756C275.132 382.843 272.827 388.583 273.232 388.93C273.638 389.278 275.405 389.875 275.405 389.875C275.405 389.875 276.659 396.608 278.781 396.814C280.902 397.019 289.096 396.224 293.724 388.608C298.35 380.994 300.83 368.742 287.453 366.379Z" fill="#EEA886"/>
<path d="M274.412 376.071C274.412 376.071 279.397 380.711 284.679 382.178C289.961 383.64 292.758 390.038 292.758 390.038C292.758 390.038 302.103 379.988 296.462 370.235C290.823 360.48 274.419 364.832 274.412 376.071Z" fill="#E8734D"/>
<path d="M285.65 382.512C285.65 382.512 291.18 398.154 290.533 401.924C290.533 401.924 293.265 401.414 298.357 403.091C298.357 403.091 295.897 375.147 285.65 382.512Z" fill="#E8734D"/>
<path d="M283.509 410.16L280.582 411.671L290.533 401.036L283.509 410.16Z" fill="#D6C5BE"/>
<path d="M290.533 401.036L283.509 410.16L287.353 413.854L291.499 402.931L290.533 401.036Z" fill="#FAE6DE"/>
<path d="M288.605 393.947C288.561 394.027 287.037 396.579 282.749 398.383C282.854 397.948 282.949 397.508 283.037 397.071C283.084 396.822 283.128 396.575 283.171 396.327C283.171 396.327 286.719 395.394 288.605 393.947Z" fill="#A77860"/>
<path d="M254.384 428.527C255.268 430.322 255.252 432.195 254.352 432.714C253.448 433.231 252.001 432.194 251.115 430.4C250.23 428.606 250.246 426.732 251.147 426.215C252.05 425.698 253.498 426.734 254.384 428.527Z" fill="#828282"/>
<path d="M291.499 402.931C291.499 402.931 300.761 401.576 303.459 412.03C303.459 412.03 291.682 410.666 291.499 402.931Z" fill="#494F80"/>
<mask id="mask56_7_817" style="mask-type:luminance" maskUnits="userSpaceOnUse" x="297" y="137" width="253" height="178">
<path d="M549.986 314.315H548.201V139.534H430.913V158.788H297.287V156.863H429.127V137.608H549.986V314.315Z" fill="white"/>
</mask>
<g mask="url(#mask56_7_817)">
<path d="M549.986 314.315H548.201V139.534H430.913V158.788H297.287V156.863H429.127V137.608H549.986V314.315Z" fill="url(#paint56_linear_7_817)"/>
</g>
<mask id="mask57_7_817" style="mask-type:luminance" maskUnits="userSpaceOnUse" x="65" y="237" width="119" height="119">
<path d="M67.6044 355.462H65.819V284.983H181.231V237.772H183.016V286.91H67.6044V355.462Z" fill="white"/>
</mask>
<g mask="url(#mask57_7_817)">
<path d="M67.6044 355.462H65.819V284.983H181.231V237.772H183.016V286.91H67.6044V355.462Z" fill="url(#paint57_linear_7_817)"/>
</g>
<path d="M153.484 229.684H118.729V227.058H153.484V229.684Z" fill="#FFCC55"/>
<path d="M153.484 263.051H118.729V252.008H153.484V263.051Z" fill="#FFCC55"/>
<path d="M169.811 268.415H149.306V266.764H169.811V268.415Z" fill="#FFCC55"/>
<path d="M169.811 273.607H149.306V269.138H169.811V273.607Z" fill="#FFCC55"/>
<defs>
<linearGradient id="paint0_linear_7_817" x1="0.00024154" y1="319.603" x2="659.001" y2="319.603" gradientUnits="userSpaceOnUse">
<stop stop-color="#01EAFE"/>
<stop offset="1" stop-color="#1171EA"/>
</linearGradient>
<linearGradient id="paint1_linear_7_817" x1="87.1642" y1="243.544" x2="-63.3261" y2="25.6141" gradientUnits="userSpaceOnUse">
<stop stop-color="#77EDCA"/>
<stop offset="1" stop-color="#9C3898"/>
</linearGradient>
<linearGradient id="paint2_linear_7_817" x1="477.477" y1="323.224" x2="293.155" y2="56.2995" gradientUnits="userSpaceOnUse">
<stop stop-color="#F185E0"/>
<stop offset="1" stop-color="#F0CB6D"/>
</linearGradient>
<linearGradient id="paint3_linear_7_817" x1="40.9573" y1="480.735" x2="107.961" y2="480.735" gradientUnits="userSpaceOnUse">
<stop stop-color="#40D5E6"/>
<stop offset="1" stop-color="#5577FF"/>
</linearGradient>
<linearGradient id="paint4_linear_7_817" x1="90.1099" y1="521.046" x2="150.702" y2="521.046" gradientUnits="userSpaceOnUse">
<stop stop-color="#40D5E6"/>
<stop offset="1" stop-color="#5577FF"/>
</linearGradient>
<linearGradient id="paint5_linear_7_817" x1="95.2889" y1="530.544" x2="140.768" y2="530.544" gradientUnits="userSpaceOnUse">
<stop stop-color="#40D5E6"/>
<stop offset="1" stop-color="#5577FF"/>
</linearGradient>
<linearGradient id="paint6_linear_7_817" x1="78.8662" y1="491.087" x2="131.83" y2="491.087" gradientUnits="userSpaceOnUse">
<stop stop-color="#40D5E6"/>
<stop offset="1" stop-color="#5577FF"/>
</linearGradient>
<linearGradient id="paint7_linear_7_817" x1="66.7119" y1="572.995" x2="115.586" y2="572.995" gradientUnits="userSpaceOnUse">
<stop stop-color="#FF9340"/>
<stop offset="1" stop-color="#FFCE45"/>
</linearGradient>
<linearGradient id="paint8_linear_7_817" x1="66.7119" y1="572.995" x2="115.586" y2="572.995" gradientUnits="userSpaceOnUse">
<stop stop-color="#C97332"/>
<stop offset="1" stop-color="#FFCE45"/>
</linearGradient>
<linearGradient id="paint9_linear_7_817" x1="474.338" y1="484.244" x2="521.418" y2="484.244" gradientUnits="userSpaceOnUse">
<stop stop-color="#FF9F55"/>
<stop offset="1" stop-color="#FFD255"/>
</linearGradient>
<linearGradient id="paint10_linear_7_817" x1="559.225" y1="369.29" x2="183.4" y2="369.29" gradientUnits="userSpaceOnUse">
<stop stop-color="#FF9F55"/>
<stop offset="1" stop-color="#FFD255"/>
</linearGradient>
<linearGradient id="paint11_linear_7_817" x1="559.231" y1="307.222" x2="183.398" y2="307.222" gradientUnits="userSpaceOnUse">
<stop stop-color="#FF9F55"/>
<stop offset="1" stop-color="#FFD255"/>
</linearGradient>
<linearGradient id="paint12_linear_7_817" x1="559.223" y1="321.404" x2="183.4" y2="321.404" gradientUnits="userSpaceOnUse">
<stop stop-color="#FF9F55"/>
<stop offset="1" stop-color="#FFD255"/>
</linearGradient>
<linearGradient id="paint13_linear_7_817" x1="559.217" y1="307.222" x2="183.402" y2="307.222" gradientUnits="userSpaceOnUse">
<stop stop-color="#FF9F55"/>
<stop offset="1" stop-color="#FFD255"/>
</linearGradient>
<linearGradient id="paint14_linear_7_817" x1="559.22" y1="234.314" x2="183.401" y2="234.314" gradientUnits="userSpaceOnUse">
<stop stop-color="#FF9F55"/>
<stop offset="1" stop-color="#FFD255"/>
</linearGradient>
<linearGradient id="paint15_linear_7_817" x1="559.213" y1="221.49" x2="183.409" y2="221.49" gradientUnits="userSpaceOnUse">
<stop stop-color="#FF9F55"/>
<stop offset="1" stop-color="#FFD255"/>
</linearGradient>
<linearGradient id="paint16_linear_7_817" x1="559.217" y1="321.404" x2="183.407" y2="321.404" gradientUnits="userSpaceOnUse">
<stop stop-color="#FF9F55"/>
<stop offset="1" stop-color="#FFD255"/>
</linearGradient>
<linearGradient id="paint17_linear_7_817" x1="559.222" y1="345.814" x2="183.4" y2="345.814" gradientUnits="userSpaceOnUse">
<stop stop-color="#FF9F55"/>
<stop offset="1" stop-color="#FFD255"/>
</linearGradient>
<linearGradient id="paint18_linear_7_817" x1="559.231" y1="307.222" x2="183.396" y2="307.222" gradientUnits="userSpaceOnUse">
<stop stop-color="#FF9F55"/>
<stop offset="1" stop-color="#FFD255"/>
</linearGradient>
<linearGradient id="paint19_linear_7_817" x1="559.218" y1="293.042" x2="183.403" y2="293.042" gradientUnits="userSpaceOnUse">
<stop stop-color="#FF9F55"/>
<stop offset="1" stop-color="#FFD255"/>
</linearGradient>
<linearGradient id="paint20_linear_7_817" x1="559.222" y1="378.938" x2="183.403" y2="378.938" gradientUnits="userSpaceOnUse">
<stop stop-color="#FF9F55"/>
<stop offset="1" stop-color="#FFD255"/>
</linearGradient>
<linearGradient id="paint21_linear_7_817" x1="559.233" y1="459.716" x2="183.376" y2="459.716" gradientUnits="userSpaceOnUse">
<stop stop-color="#FF9F55"/>
<stop offset="1" stop-color="#FFD255"/>
</linearGradient>
<linearGradient id="paint22_linear_7_817" x1="559.221" y1="454.663" x2="183.401" y2="454.663" gradientUnits="userSpaceOnUse">
<stop stop-color="#FF9F55"/>
<stop offset="1" stop-color="#FFD255"/>
</linearGradient>
<linearGradient id="paint23_linear_7_817" x1="559.226" y1="432.812" x2="183.4" y2="432.812" gradientUnits="userSpaceOnUse">
<stop stop-color="#FF9F55"/>
<stop offset="1" stop-color="#FFD255"/>
</linearGradient>
<linearGradient id="paint24_linear_7_817" x1="559.218" y1="473.896" x2="183.412" y2="473.896" gradientUnits="userSpaceOnUse">
<stop stop-color="#FF9F55"/>
<stop offset="1" stop-color="#FFD255"/>
</linearGradient>
<linearGradient id="paint25_linear_7_817" x1="559.211" y1="466.962" x2="183.419" y2="466.962" gradientUnits="userSpaceOnUse">
<stop stop-color="#FF9F55"/>
<stop offset="1" stop-color="#FFD255"/>
</linearGradient>
<linearGradient id="paint26_linear_7_817" x1="559.222" y1="473.896" x2="183.402" y2="473.896" gradientUnits="userSpaceOnUse">
<stop stop-color="#FF9F55"/>
<stop offset="1" stop-color="#FFD255"/>
</linearGradient>
<linearGradient id="paint27_linear_7_817" x1="559.222" y1="348.371" x2="183.4" y2="348.371" gradientUnits="userSpaceOnUse">
<stop stop-color="#FF9F55"/>
<stop offset="1" stop-color="#FFD255"/>
</linearGradient>
<linearGradient id="paint28_linear_7_817" x1="559.233" y1="334.192" x2="183.376" y2="334.192" gradientUnits="userSpaceOnUse">
<stop stop-color="#FF9F55"/>
<stop offset="1" stop-color="#FFD255"/>
</linearGradient>
<linearGradient id="paint29_linear_7_817" x1="559.224" y1="305.832" x2="183.416" y2="305.832" gradientUnits="userSpaceOnUse">
<stop stop-color="#FF9F55"/>
<stop offset="1" stop-color="#FFD255"/>
</linearGradient>
<linearGradient id="paint30_linear_7_817" x1="559.222" y1="342.908" x2="183.399" y2="342.908" gradientUnits="userSpaceOnUse">
<stop stop-color="#FF9F55"/>
<stop offset="1" stop-color="#FFD255"/>
</linearGradient>
<linearGradient id="paint31_linear_7_817" x1="559.219" y1="364.178" x2="183.41" y2="364.178" gradientUnits="userSpaceOnUse">
<stop stop-color="#FF9F55"/>
<stop offset="1" stop-color="#FFD255"/>
</linearGradient>
<linearGradient id="paint32_linear_7_817" x1="559.226" y1="378.358" x2="183.391" y2="378.358" gradientUnits="userSpaceOnUse">
<stop stop-color="#FF9F55"/>
<stop offset="1" stop-color="#FFD255"/>
</linearGradient>
<linearGradient id="paint33_linear_7_817" x1="559.222" y1="426.128" x2="183.399" y2="426.128" gradientUnits="userSpaceOnUse">
<stop stop-color="#FF9F55"/>
<stop offset="1" stop-color="#FFD255"/>
</linearGradient>
<linearGradient id="paint34_linear_7_817" x1="559.222" y1="419.036" x2="183.401" y2="419.036" gradientUnits="userSpaceOnUse">
<stop stop-color="#FF9F55"/>
<stop offset="1" stop-color="#FFD255"/>
</linearGradient>
<linearGradient id="paint35_linear_7_817" x1="559.218" y1="445.536" x2="183.405" y2="445.536" gradientUnits="userSpaceOnUse">
<stop stop-color="#FF9F55"/>
<stop offset="1" stop-color="#FFD255"/>
</linearGradient>
<linearGradient id="paint36_linear_7_817" x1="559.226" y1="377.818" x2="183.397" y2="377.818" gradientUnits="userSpaceOnUse">
<stop stop-color="#FF9F55"/>
<stop offset="1" stop-color="#FFD255"/>
</linearGradient>
<linearGradient id="paint37_linear_7_817" x1="559.224" y1="237.772" x2="183.401" y2="237.772" gradientUnits="userSpaceOnUse">
<stop stop-color="#FF9F55"/>
<stop offset="1" stop-color="#FFD255"/>
</linearGradient>
<linearGradient id="paint38_linear_7_817" x1="559.224" y1="237.772" x2="183.4" y2="237.772" gradientUnits="userSpaceOnUse">
<stop stop-color="#FF9F55"/>
<stop offset="1" stop-color="#FFD255"/>
</linearGradient>
<linearGradient id="paint39_linear_7_817" x1="559.221" y1="258.35" x2="183.401" y2="258.35" gradientUnits="userSpaceOnUse">
<stop stop-color="#FF9F55"/>
<stop offset="1" stop-color="#FFD255"/>
</linearGradient>
<linearGradient id="paint40_linear_7_817" x1="559.217" y1="237.772" x2="183.41" y2="237.772" gradientUnits="userSpaceOnUse">
<stop stop-color="#FF9F55"/>
<stop offset="1" stop-color="#FFD255"/>
</linearGradient>
<linearGradient id="paint41_linear_7_817" x1="0.00119184" y1="319.604" x2="659.002" y2="319.604" gradientUnits="userSpaceOnUse">
<stop stop-color="#EFF5F8"/>
<stop offset="1" stop-color="#F3F8F0"/>
</linearGradient>
<linearGradient id="paint42_linear_7_817" x1="40.9573" y1="480.735" x2="107.961" y2="480.735" gradientUnits="userSpaceOnUse">
<stop stop-color="#F1FCFE"/>
<stop offset="1" stop-color="#F2F5FF"/>
</linearGradient>
<linearGradient id="paint43_linear_7_817" x1="90.1099" y1="521.046" x2="150.702" y2="521.046" gradientUnits="userSpaceOnUse">
<stop stop-color="#F1FCFE"/>
<stop offset="1" stop-color="#F2F5FF"/>
</linearGradient>
<linearGradient id="paint44_linear_7_817" x1="95.2889" y1="530.544" x2="140.768" y2="530.544" gradientUnits="userSpaceOnUse">
<stop stop-color="#F1FCFE"/>
<stop offset="1" stop-color="#F2F5FF"/>
</linearGradient>
<linearGradient id="paint45_linear_7_817" x1="78.8662" y1="491.087" x2="131.83" y2="491.087" gradientUnits="userSpaceOnUse">
<stop stop-color="#F1FCFE"/>
<stop offset="1" stop-color="#F2F5FF"/>
</linearGradient>
<linearGradient id="paint46_linear_7_817" x1="224.214" y1="458.863" x2="224.214" y2="509.625" gradientUnits="userSpaceOnUse">
<stop stop-color="#FFF8F2"/>
<stop offset="1" stop-color="#FFFCF2"/>
</linearGradient>
<linearGradient id="paint47_linear_7_817" x1="559.224" y1="369.29" x2="183.4" y2="369.29" gradientUnits="userSpaceOnUse">
<stop stop-color="#FFF8F2"/>
<stop offset="1" stop-color="#FFFCF2"/>
</linearGradient>
<linearGradient id="paint48_linear_7_817" x1="0.00125454" y1="319.604" x2="659.002" y2="319.604" gradientUnits="userSpaceOnUse">
<stop stop-color="#EFF5F8"/>
<stop offset="1" stop-color="#F3F8F0"/>
</linearGradient>
<linearGradient id="paint49_linear_7_817" x1="559.231" y1="307.222" x2="183.398" y2="307.222" gradientUnits="userSpaceOnUse">
<stop stop-color="#FFF8F2"/>
<stop offset="1" stop-color="#FFFCF2"/>
</linearGradient>
<linearGradient id="paint50_linear_7_817" x1="559.217" y1="307.222" x2="183.402" y2="307.222" gradientUnits="userSpaceOnUse">
<stop stop-color="#FFF8F2"/>
<stop offset="1" stop-color="#FFFCF2"/>
</linearGradient>
<linearGradient id="paint51_linear_7_817" x1="559.224" y1="432.812" x2="183.401" y2="432.812" gradientUnits="userSpaceOnUse">
<stop stop-color="#FFF8F2"/>
<stop offset="1" stop-color="#FFFCF2"/>
</linearGradient>
<linearGradient id="paint52_linear_7_817" x1="558.912" y1="377.818" x2="183.559" y2="377.818" gradientUnits="userSpaceOnUse">
<stop stop-color="#FFF8F2"/>
<stop offset="1" stop-color="#FFFCF2"/>
</linearGradient>
<linearGradient id="paint53_linear_7_817" x1="559.225" y1="432.81" x2="183.4" y2="432.81" gradientUnits="userSpaceOnUse">
<stop stop-color="#FFF8F2"/>
<stop offset="1" stop-color="#FFFCF2"/>
</linearGradient>
<linearGradient id="paint54_linear_7_817" x1="497.878" y1="213.534" x2="497.878" y2="162.772" gradientUnits="userSpaceOnUse">
<stop stop-color="#FF9F55"/>
<stop offset="1" stop-color="#FFD255"/>
</linearGradient>
<linearGradient id="paint55_linear_7_817" x1="247.755" y1="188.154" x2="200.673" y2="188.154" gradientUnits="userSpaceOnUse">
<stop stop-color="#FF9F55"/>
<stop offset="1" stop-color="#FFD255"/>
</linearGradient>
<linearGradient id="paint56_linear_7_817" x1="549.986" y1="225.962" x2="297.288" y2="225.962" gradientUnits="userSpaceOnUse">
<stop stop-color="#FF9F55"/>
<stop offset="1" stop-color="#FFD255"/>
</linearGradient>
<linearGradient id="paint57_linear_7_817" x1="183.016" y1="296.616" x2="65.8185" y2="296.616" gradientUnits="userSpaceOnUse">
<stop stop-color="#FF9F55"/>
<stop offset="1" stop-color="#FFD255"/>
</linearGradient>
</defs>
</svg>
